<?xml version="1.0" encoding="utf-8"?>
<!-- Generator: Adobe Illustrator 24.0.0, SVG Export Plug-In . SVG Version: 6.00 Build 0)  -->
<svg version="1.1" id="Capa_1" xmlns="http://www.w3.org/2000/svg" xmlns:xlink="http://www.w3.org/1999/xlink" x="0px" y="0px"
	 viewBox="0 0 105 105" style="enable-background:new 0 0 105 105;" xml:space="preserve">
<path style="fill:#7A1422;" d="M12.4,99.9c-0.9,0-1.6,0.7-1.6,1.6s0.7,1.6,1.6,1.6h80.2c0.9,0,1.6-0.7,1.6-1.6s-0.7-1.6-1.6-1.6
	H78.1c0.2-2,1.4-3.8,3.2-4.8c5.2-2.5,8.5-7.8,8.4-13.6V62.7c0-0.9-0.7-1.6-1.6-1.6H70.3c0.7-0.6,1.3-1.2,2-1.8
	c6.8-6.8,7.4-17.1,7.4-17.5c0-0.5-0.1-0.9-0.5-1.2c-0.3-0.3-0.8-0.5-1.2-0.5c-0.4,0-10.1,0.6-16.9,6.8c-1.3-4.1-3.4-7.9-6.1-11.2
	c0,0,0,0,0,0c-0.7-0.6-1.7-0.6-2.4,0c-0.1,0.1-0.4,0.5-0.9,1.1L30.7,5.6C28.2,1.9,23.3,0.8,19.5,3c-4.1,2.3-5.5,7.5-3.1,11.5
	l14.8,25.7c-0.9-0.1-1.5-0.2-1.6-0.2c-0.5,0-0.9,0.2-1.2,0.5c-0.3,0.3-0.5,0.8-0.5,1.2c0,0.4,0.6,10.7,7.4,17.5
	c0.6,0.6,1.3,1.2,2,1.8H19.4c-0.9,0-1.6,0.7-1.6,1.6v18.8c0,5.8,3.3,11.1,8.4,13.6c1.8,0.9,3,2.7,3.2,4.8H12.4L12.4,99.9z
	 M31.3,43.6c3.1,0.5,9.2,2,13.4,6.2c4.3,4.3,6.6,8.6,7.2,11.3h-9.5c-1.7-1.2-3.4-2.6-4.9-4.1C33.3,52.7,31.8,46.6,31.3,43.6z
	 M36.1,19.4l-9.7,6L23.2,20l9.3-5.8L36.1,19.4z M30.8,11.5l-9.1,5.7l-2.5-4.3c-1.4-2.4-0.7-5.4,1.6-7C23.2,4.4,26.4,5,28,7.4
	L30.8,11.5z M49.7,39.8c-1.4,2.2-2.5,4.6-3.2,7.1c-3.2-2.8-7-4.8-11-5.8L28,28.2l9.9-6.1L49.7,39.8z M58.5,49.7
	c-1.8,2.1-3.4,4.4-4.7,6.9c-1.3-2.5-2.8-4.8-4.7-6.9c0.8-3.7,2.4-7.2,4.7-10.2C56,42.5,57.6,46,58.5,49.7z M65.1,61.1h-9.5
	c0.6-2.8,2.9-7,7.2-11.3c4.3-4.3,10.4-5.8,13.4-6.2c-0.5,3.1-2,9.2-6.2,13.4C68.5,58.5,66.9,59.9,65.1,61.1z M80.2,92.1H27.4
	C23.5,90,21,86,21,81.5V64.4h65.5v17.2C86.6,86,84.1,90,80.2,92.1z M76.4,95.3c-0.9,1.4-1.5,3-1.6,4.6H32.7
	c-0.1-1.6-0.6-3.2-1.6-4.6L76.4,95.3L76.4,95.3z"/>
</svg>
