<?xml version="1.0" encoding="utf-8"?>
<!-- Generator: Adobe Illustrator 24.0.0, SVG Export Plug-In . SVG Version: 6.00 Build 0)  -->
<svg version="1.1" id="Capa_1" xmlns="http://www.w3.org/2000/svg" xmlns:xlink="http://www.w3.org/1999/xlink" x="0px" y="0px"
	 viewBox="0 0 105 105" style="enable-background:new 0 0 105 105;" xml:space="preserve">
<path style="fill:#7A1422;" d="M89.8,63.6c-11.5-12.7-16.2-28.3-12-39.7c3-8.2,10.2-13.3,20.8-14.6c0.9-0.1,1.5-0.9,1.4-1.8
	C99.8,6.6,99,6,98.2,6.1c-11.7,1.5-20,7.4-23.4,16.7c-4.6,12.5,0.4,29.4,12.7,42.9c9.4,10.4,13.6,20,11.1,25.8
	c-1.1,2.6-3.8,4.3-6.6,4.2c-2.3,0.1-4.5-0.4-6.5-1.5l1.2-1.1c0.7-0.6,0.7-1.6,0.2-2.2L84,87.5c2.1-4,2-8.8-0.1-12.8L55.4,14
	c-3.3-6.8-11.5-9.6-18.3-6.4C36.3,8,36,8.9,36.3,9.7c0,0,0,0,0,0l1.5,3.2l-3.7,1.8c-0.8,0.4-1.1,1.3-0.7,2.1c0,0,0,0,0,0l20.7,42.9
	L14.7,33c-0.7-0.5-1.7-0.3-2.2,0.4c0,0,0,0,0,0l-2.4,3.5l-3-2c-0.7-0.5-1.7-0.3-2.2,0.4c-4.2,6.3-2.6,14.8,3.6,19l55.9,38
	c2.2,1.5,4.9,2.3,7.6,2.3c1.8,0,3.5-0.4,5.2-1.1l2.7,3.2c0.3,0.3,0.7,0.5,1.1,0.5h0.1c0.4,0,0.8-0.1,1-0.4l0.8-0.7
	c2.5,1.7,5.5,2.6,8.5,2.6c0.2,0,0.3,0,0.5,0c4.1,0,7.8-2.4,9.4-6.1C104.5,85.7,100.2,75.1,89.8,63.6L89.8,63.6z M52.5,15.4L77.6,69
	c-3-1.3-6.3-1.5-9.4-0.6L40,9.9C44.9,8.4,50.2,10.7,52.5,15.4L52.5,15.4z M59.2,65.7l3.4-1.6l2.7,5.5c-1.2,0.7-2.3,1.6-3.2,2.6
	l-5-3.4L59.2,65.7z M39.3,15.8l21.9,45.4l-2.3,1.1L37,16.9L39.3,15.8z M14.3,36.5l41.7,28.4l-1.5,2.2L12.8,38.7L14.3,36.5z
	 M66.3,89.7l-55.9-38c-4.3-2.9-5.8-8.5-3.6-13.2l54.7,37.2c0.7,0.5,1.7,0.3,2.2-0.4c3.3-4.6,9.7-5.7,14.3-2.5c1.2,0.9,2.2,2,3,3.3
	l0.5,1.1c0,0.1,0.1,0.1,0.1,0.2c0.2,0.6,0.4,1.3,0.6,1.9c1.1,5.6-2.6,11-8.2,12C71.3,91.8,68.5,91.3,66.3,89.7L66.3,89.7z M80.1,92
	c0.7-0.5,1.4-1.2,2.1-1.8l1.3,1.5l-2.1,1.8L80.1,92z"/>
</svg>
