<?xml version="1.0" encoding="utf-8"?>
<!-- Generator: Adobe Illustrator 24.0.0, SVG Export Plug-In . SVG Version: 6.00 Build 0)  -->
<svg version="1.1" id="Capa_1" xmlns="http://www.w3.org/2000/svg" xmlns:xlink="http://www.w3.org/1999/xlink" x="0px" y="0px"
	 viewBox="0 0 105 105" style="enable-background:new 0 0 105 105;" xml:space="preserve">
<g>
	<g>
		<path style="fill:#7A1422;" d="M101,32.4h-5v-2.5c0-3.2-2.6-5.9-5.9-5.9c-0.9,0-1.7,0.2-2.5,0.6v-2.3c0-3.7-3-6.7-6.7-6.7
			c-3.7,0-6.7,3-6.7,6.7v10h-6.7v-1.7c0-2.8-2.2-5-5-5c-1.3,0-2.5,0.5-3.4,1.3c-1.9-1.7-4.8-1.7-6.7,0c-1.9-1.7-4.8-1.7-6.7,0
			c-2-1.9-5.2-1.7-7.1,0.3c-0.8,0.9-1.3,2.1-1.3,3.4v1.7h-6.7v-10c0-3.7-3-6.7-6.7-6.7s-6.7,3-6.7,6.7v2.3c-0.8-0.4-1.6-0.6-2.5-0.6
			C11.6,24,9,26.7,9,29.9v2.5H4c-0.9,0-1.7,0.7-1.7,1.7v10c0,0.9,0.7,1.7,1.7,1.7h5v2.5c0,3.2,2.6,5.9,5.9,5.9
			c0.9,0,1.7-0.2,2.5-0.6v2.3c0,3.7,3,6.7,6.7,6.7s6.7-3,6.7-6.7v-10h3.3v5.6c0,2.2,0.9,4.4,2.5,5.9l4.2,4.2v27.8h3.3V60.9
			c0-0.4-0.2-0.9-0.5-1.2L38.9,55c-0.9-0.9-1.5-2.2-1.5-3.6V40.8h9.8c0.6,0,1.2,0.3,1.6,0.8c0,0,0,0,0,0.1c0.1,0.1,0.1,0.2,0.2,0.4
			c0,0.1,0.1,0.2,0.1,0.3c0,0.1,0,0.2,0,0.3c0,0.1,0,0.1,0,0.2c0,0.2-0.1,0.3-0.2,0.5c-0.3,0.5-0.8,0.8-1.4,0.8h-5
			c-0.9,0-1.7,0.7-1.7,1.7v3.3c0,0.7,0.5,1.4,1.1,1.6l3.7,1.2c3,1,5.2,5.5,5.2,8.9h3.3c0-4.6-2.9-10.5-7.5-12.1l-2.5-0.8v-0.5h3.3
			c1.4,0,2.7-0.6,3.7-1.7h14.7v6.1c0,1.1-0.4,2.1-1,3l-3.7,4.9c-0.2,0.3-0.3,0.6-0.3,1v28.5h3.3V61.4l3.3-4.5c1.1-1.5,1.7-3.2,1.7-5
			v-6.1h5v10c0,3.7,3,6.7,6.7,6.7c3.7,0,6.7-3,6.7-6.7v-2.3c0.8,0.4,1.6,0.6,2.5,0.6c3.2,0,5.9-2.6,5.9-5.9v-2.5h5
			c0.9,0,1.7-0.7,1.7-1.7v-10C102.7,33.2,102,32.4,101,32.4z M9,42.5H5.6v-6.7H9V42.5z M17.3,48.3c0,1.4-1.1,2.5-2.5,2.5
			s-2.5-1.1-2.5-2.5V29.9c0-1.4,1.1-2.5,2.5-2.5s2.5,1.1,2.5,2.5V48.3z M27.4,55.8c0,1.8-1.5,3.3-3.3,3.3s-3.3-1.5-3.3-3.3V22.4
			c0-1.8,1.5-3.3,3.3-3.3s3.3,1.5,3.3,3.3V55.8z M35.8,37.4c-0.9,0-1.7,0.7-1.7,1.7v3.3h-3.3v-6.7h6.7c0,0.3,0,0.6,0.1,0.9
			c0,0.1,0.1,0.2,0.1,0.3c0,0.1,0.1,0.3,0.1,0.4H35.8z M44.1,35.8c0,0.9-0.7,1.7-1.7,1.7s-1.7-0.7-1.7-1.7v-5c0-0.9,0.7-1.7,1.7-1.7
			s1.7,0.7,1.7,1.7V35.8z M50.8,35.8c0,0.9-0.7,1.7-1.7,1.7c-0.9,0-1.7-0.7-1.7-1.7v-5c0-0.9,0.7-1.7,1.7-1.7c0.9,0,1.7,0.7,1.7,1.7
			V35.8z M60.9,30.7c0-0.9,0.7-1.7,1.7-1.7s1.7,0.7,1.7,1.7v5c0,0.9-0.7,1.7-1.7,1.7s-1.7-0.7-1.7-1.7V30.7z M54.2,30.7
			c0-0.9,0.7-1.7,1.7-1.7c0.9,0,1.7,0.7,1.7,1.7v5c0,0.9-0.7,1.7-1.7,1.7c-0.9,0-1.7-0.7-1.7-1.7V30.7z M74.3,42.5L74.3,42.5H52.5
			c0,0,0,0,0,0c0-0.3,0-0.7-0.1-1c0,0,0-0.1,0-0.1c0-0.1-0.1-0.2-0.1-0.4c-0.1-0.2-0.2-0.4-0.3-0.6c0-0.1-0.1-0.2-0.1-0.3
			c0,0,0,0,0.1,0c0.1-0.1,0.1-0.1,0.2-0.2c0.1-0.1,0.3-0.2,0.4-0.3c0.1,0.1,0.2,0.2,0.3,0.2c0.1,0.1,0.2,0.2,0.3,0.2
			c0.2,0.1,0.3,0.2,0.5,0.3c0.1,0.1,0.2,0.1,0.3,0.2c0.2,0.1,0.4,0.1,0.6,0.2c0.1,0,0.2,0.1,0.3,0.1c0.6,0.1,1.3,0.1,2,0
			c0.1,0,0.2-0.1,0.3-0.1c0.2,0,0.4-0.1,0.6-0.2c0.1,0,0.2-0.1,0.3-0.2c0.2-0.1,0.3-0.2,0.5-0.3c0.1-0.1,0.2-0.2,0.3-0.2
			c0.1-0.1,0.2-0.1,0.3-0.2c0.1,0.1,0.2,0.2,0.3,0.2c0.1,0.1,0.2,0.2,0.3,0.2c0.2,0.1,0.3,0.2,0.5,0.3c0.1,0.1,0.2,0.1,0.3,0.2
			c0.2,0.1,0.4,0.1,0.6,0.2c0.1,0,0.2,0.1,0.3,0.1c2.7,0.6,5.4-1.2,5.9-3.9c0.1-0.3,0.1-0.7,0.1-1h6.7L74.3,42.5L74.3,42.5z
			 M84.3,55.8c0,1.8-1.5,3.3-3.3,3.3c-1.8,0-3.3-1.5-3.3-3.3V22.4c0-1.8,1.5-3.3,3.3-3.3c1.8,0,3.3,1.5,3.3,3.3V55.8z M92.7,48.3
			c0,1.4-1.1,2.5-2.5,2.5s-2.5-1.1-2.5-2.5V29.9c0-1.4,1.1-2.5,2.5-2.5s2.5,1.1,2.5,2.5V48.3z M99.4,42.5H96v-6.7h3.3V42.5z"/>
	</g>
</g>
</svg>
