<?xml version="1.0" encoding="utf-8"?>
<!-- Generator: Adobe Illustrator 24.0.0, SVG Export Plug-In . SVG Version: 6.00 Build 0)  -->
<svg version="1.1" id="Capa_1" xmlns="http://www.w3.org/2000/svg" xmlns:xlink="http://www.w3.org/1999/xlink" x="0px" y="0px"
	 viewBox="0 0 105 105" style="enable-background:new 0 0 105 105;" xml:space="preserve">
<path style="fill:#7A1422;" d="M100.5,98.9h-8.4V73.6c0-0.9-0.7-1.6-1.6-1.6h-7.7V36c1.6-0.5,3-1.7,3.6-3.3h4.5
	c0.9,0,1.6-0.7,1.6-1.6s-0.7-1.6-1.6-1.6h-4.1v-2.6h4.1c0.9,0,1.6-0.7,1.6-1.6c0-0.9-0.7-1.6-1.6-1.6h-4.1v-2.6h4.1
	c0.9,0,1.6-0.7,1.6-1.6c0-0.9-0.7-1.6-1.6-1.6h-4.1v-2.6h4.1c0.9,0,1.6-0.7,1.6-1.6c0-0.9-0.7-1.6-1.6-1.6h-4.1V9.6h4.1
	c0.9,0,1.6-0.7,1.6-1.6s-0.7-1.6-1.6-1.6h-4.5c-1.1-2.9-4.3-4.3-7.2-3.2C77.7,3.8,76.6,5,76,6.5h-4.5c-0.9,0-1.6,0.7-1.6,1.6
	s0.7,1.6,1.6,1.6h4.1v2.6h-4.1c-0.9,0-1.6,0.7-1.6,1.6c0,0.9,0.7,1.6,1.6,1.6h4.1V18h-4.1c-0.9,0-1.6,0.7-1.6,1.6s0.7,1.6,1.6,1.6
	h4.1v2.6h-4.1c-0.9,0-1.6,0.7-1.6,1.6c0,0.9,0.7,1.6,1.6,1.6h4.1v2.6h-4.1c-0.9,0-1.6,0.7-1.6,1.6c0,0.9,0.7,1.6,1.6,1.6H76
	c0.6,1.6,1.9,2.8,3.6,3.3V72h-7.7c-0.9,0-1.6,0.7-1.6,1.6v25.3h-3.2V65.7c0-0.9-0.7-1.6-1.6-1.6h-1.4V46.3c0-0.9-0.7-1.6-1.6-1.6
	h-1.7V33c0-0.1,0-0.2,0-0.3c0.9-3.6-5.1-9.7-5.9-10.5c-1.8-1.9-3.9-3.5-6.2-4.8c-2.5-1.4-4.4-1.5-5.6-0.4c-0.1,0.1-0.2,0.3-0.3,0.4
	c-0.2,0.2-0.3,0.5-0.3,0.8c-0.1,0.5-0.1,1,0,1.5v25h-1.7c-0.9,0-1.6,0.7-1.6,1.6v17.9h-1.4c-0.9,0-1.6,0.7-1.6,1.6v33.2h-8.3
	c0.3-0.7,0.5-1.5,0.6-2.2L31,30.8l11-18.7c1.2-2,0.5-4.5-1.4-5.7c-0.1-0.1-0.3-0.2-0.4-0.2c-3.3-1.5-9.1-3.3-17.4-3.3
	S8.7,4.7,5.4,6.2c-2.1,0.9-3,3.4-2.1,5.5c0.1,0.1,0.1,0.3,0.2,0.4l11,18.7l2.6,65.9c0,0.8,0.2,1.5,0.6,2.2H4.5
	c-0.9,0-1.6,0.7-1.6,1.6c0,0.9,0.7,1.6,1.6,1.6h18c0.1,0,0.2,0,0.3,0s0.2,0,0.3,0h48.6c0.1,0,0.2,0,0.3,0h18.3c0.1,0,0.2,0,0.3,0
	h9.8c0.9,0,1.6-0.7,1.6-1.6C102.1,99.6,101.4,98.9,100.5,98.9L100.5,98.9L100.5,98.9z M78.8,30.7V8.5c0-1.3,1.1-2.4,2.4-2.4
	s2.4,1.1,2.4,2.4v22.3c0,1.3-1.1,2.4-2.4,2.4S78.8,32,78.8,30.7z M73.5,75.2h15.5v23.8H73.5V75.2z M52.7,24.4c3.2,3.2,4.7,5.9,5,7
	c-1.2-0.3-3.9-1.8-7-5s-4.7-5.8-5-7l0,0C46.8,19.7,49.5,21.3,52.7,24.4z M45.6,25.6c0.9,1.1,1.8,2.1,2.8,3.1c0.7,0.7,5.7,5.5,9.3,6
	v10h-12V25.6z M42.4,47.9h18.6v3.7H42.4V47.9z M42.4,54.8h18.6v9.4H42.4V54.8z M39.4,67.3h24.6v31.6H39.4V67.3z M27.8,31.9l-0.3,6.6
	H18l-0.3-6.6H27.8z M18.1,41.6h9.3l-0.2,5.2h-8.9L18.1,41.6z M6.1,9.6c0.1-0.3,0.3-0.5,0.5-0.6c3.1-1.4,8.3-3,16.1-3
	s13.1,1.6,16.1,3c0.2,0.1,0.4,0.3,0.5,0.6c0.1,0.3,0.1,0.6-0.1,0.8L28.6,28.7h-1.3v-7.3c0-0.9-0.7-1.6-1.6-1.6
	c-0.9,0-1.6,0.7-1.6,1.6l0,0v7.3h-2.6V16.3c0-0.9-0.7-1.6-1.6-1.6c-0.9,0-1.6,0.7-1.6,1.6v12.4H17L6.2,10.4C6.1,10.2,6,9.9,6.1,9.6z
	 M20.3,96.5L18.5,50h8.6l-1.8,46.5c0,1.3-1.1,2.3-2.3,2.4h-0.3C21.3,98.8,20.3,97.8,20.3,96.5L20.3,96.5z"/>
</svg>
