<?xml version="1.0" encoding="utf-8"?>
<!-- Generator: Adobe Illustrator 24.0.0, SVG Export Plug-In . SVG Version: 6.00 Build 0)  -->
<svg version="1.1" id="Capa_1" xmlns="http://www.w3.org/2000/svg" xmlns:xlink="http://www.w3.org/1999/xlink" x="0px" y="0px"
	 viewBox="0 0 105 105" style="enable-background:new 0 0 105 105;" xml:space="preserve">
<g>
	<path style="fill:none;stroke:#FFFFFF;stroke-width:4;stroke-miterlimit:10;" d="M28,9.5c7.7-4,16.8-6.1,27.2-6.1
		c8.2,0,15.5,1.5,22,4.4c6.5,2.9,11.7,7.1,15.7,12.4c4,5.3,6.4,11.4,7.3,18.3H78.4c-1.4-5.4-4.1-9.7-8.3-12.9
		C66,22.5,60.8,21,54.6,21c-5.7,0-10.7,1.3-14.9,4c-4.2,2.7-7.5,6.4-9.7,11.2c-2.3,4.8-3.4,10.2-3.4,16.4c0,9.5,2.5,17.1,7.4,22.9
		c5,5.8,11.8,8.7,20.6,8.7c6.4,0,12-1.6,17-4.9c4.9-3.3,7.9-8.1,8.9-14.4v-1.2H54.8V47.1H101v53.6H85.6l-2.4-12
		c-3,3.8-7.1,6.8-12.2,9.2c-5.1,2.4-11.1,3.6-17.8,3.6c-9.7,0-18.3-2-25.7-6.1s-13.2-9.8-17.3-17.2C6.1,70.8,4,62.2,4,52.5
		c0-9.8,2.1-18.4,6.2-25.8C14.4,19.3,20.3,13.6,28,9.5z"/>
</g>
</svg>
