<?xml version="1.0" encoding="utf-8"?>
<!-- Generator: Adobe Illustrator 24.0.0, SVG Export Plug-In . SVG Version: 6.00 Build 0)  -->
<svg version="1.1" id="Capa_1" xmlns="http://www.w3.org/2000/svg" xmlns:xlink="http://www.w3.org/1999/xlink" x="0px" y="0px"
	 viewBox="0 0 105 105" style="enable-background:new 0 0 105 105;" xml:space="preserve">
<g>
	<path style="fill:#7A1422;" d="M35.6,54.3c0-0.8,0.7-1.5,1.5-1.5s1.5,0.7,1.5,1.5c0,0.8,0.7,1.5,1.5,1.5c0.8,0,1.5-0.7,1.5-1.5
		c0-0.8,0.7-1.5,1.5-1.5s1.5,0.7,1.5,1.5c0,2.5-2,4.5-4.5,4.5C37.6,58.8,35.6,56.8,35.6,54.3z"/>
	<path style="fill:#7A1422;" d="M22,54.3c0-0.8,0.7-1.5,1.5-1.5c0.8,0,1.5,0.7,1.5,1.5c0,0.8,0.7,1.5,1.5,1.5c0.8,0,1.5-0.7,1.5-1.5
		c0-0.8,0.7-1.5,1.5-1.5c0.8,0,1.5,0.7,1.5,1.5c0,2.5-2,4.5-4.5,4.5C24,58.8,22,56.8,22,54.3z"/>
	<path style="fill:#7A1422;" d="M4.6,96.4v4.9c0,0.8,0.7,1.5,1.5,1.5h54.3c0.8,0,1.5-0.7,1.5-1.5v-4.9c0-3.5-2.1-6.7-5.4-8.1
		l-13.2-5.6c-0.7-0.3-1.2-1-1.2-1.9v-2c5.1-2.5,9.1-6.3,12-11.2c0.4-0.7,0.2-1.6-0.5-2c-0.7-0.4-1.6-0.2-2,0.5
		c-3,5.1-7.4,8.8-13,11.1c-3.4,1.4-7.1,1.4-10.5,0c-6-2.4-10.6-6.5-13.6-12.2c-1.6-3.1-2.8-6.5-3.5-10.4c0.2-0.3,0.4-0.6,0.5-1
		c0-0.1,0-0.1,0-0.2c0,0,0.3-2.8,2.8-6.4c4.2-6,11.1-9.5,16.2-11.4c0.3-0.1,2.8-1,5.8-2.7c1.5,1,3.2,1.6,4.5,2.2l0.1,0.1
		c3.5,1.5,6.7,3.7,9,6.5c2.7,3.2,4,6.7,5.2,11.3c0.1,0.4,0.4,0.8,0.7,1.2c-0.4,2.1-0.8,4.1-1.5,5.9c-0.3,0.8,0.2,1.6,0.9,1.9
		c0.8,0.3,1.6-0.2,1.9-0.9c0.7-2,1.2-4.2,1.6-6.4c0.4-0.2,0.7-0.4,0.9-0.8c1.6-2.2,2.5-4.2,3-6.5c0.5-2.5,0.7-5.1,0.6-7.8
		c-0.3-6.4-1.6-9-2.4-10.1c-0.9-1.2-2.1-1.7-3.4-1.4c0-0.3,0-0.6,0-0.9c0,0,0,0,0-0.1c0,0,0,0,0,0c-0.1-3-0.8-4.6-3.6-6.5
		c-1.5-1-3.2-1.8-5-2.3c0.1-0.9,0-1.8-0.1-2.8c-0.1-0.9-1.3-9.3-11.3-12.3c-6-1.8-12.8-0.6-18,3.2c-3.9,2.8-7.1,6.3-9.7,10.4
		c-0.5,0.8-0.6,1.8-0.4,2.7l0.3,1.1c0,0.1,0,0.2,0,0.3C9.3,21.5,9,22,8.7,22.4c-2.5,4-4.8,7.8-5.3,15c-0.1,1.4-0.7,13.2,3.5,17
		C7,54.6,7.4,54.9,8,55.2c0.8,4.1,2,7.9,3.8,11.2c3,5.5,7.2,9.7,12.7,12.4v2c0,0.8-0.5,1.5-1.2,1.9l-4.3,1.8
		c-0.7,0.3-1.1,1.2-0.8,1.9c0.3,0.7,1.2,1.1,1.9,0.8l4.3-1.8c1.8-0.8,3-2.6,3-4.6v-0.7c1.9,0.7,3.9,1,5.9,1c2,0,4-0.4,5.9-1v0.7
		c0,2,1.2,3.8,3,4.6L55.4,91c2.2,0.9,3.6,3,3.6,5.4v3.5H7.6v-3.5c0-2.4,1.4-4.5,3.6-5.4l2.6-1.1c0.7-0.3,1.1-1.2,0.8-1.9
		c-0.3-0.7-1.2-1.1-1.9-0.8L10,88.3C6.8,89.6,4.6,92.8,4.6,96.4z M39.1,31.2c3.7-2.4,7.5-5.8,9-10c1.5,0.5,2.8,1.1,4,1.9
		c1.7,1.2,2.2,1.9,2.3,4.1c0,0,0,0,0,0c0,0.1,0.1,5.6-0.7,8.6c-0.2,0.8,0.3,1.6,1.1,1.8c0.1,0,0.2,0,0.3,0c0.7,0,1.3-0.5,1.4-1.1
		c0.4-1.5,0.6-3.6,0.7-5.4c0.2,0,0.5-0.1,0.7-0.2c0,0,0.1,0,0.1,0c0.1,0,0.2,0.1,0.4,0.3c0.9,1.2,1.6,4.5,1.8,8.5
		c0.1,2.5,0,4.8-0.5,7c-0.3,1.6-1,3-2,4.6c-1-3.7-2.5-7.8-5.6-11.6c-2.7-3.2-6.2-5.7-10.2-7.4l-0.1-0.1
		C41.1,32.1,40.1,31.7,39.1,31.2z M8.6,52C6.4,49.6,6,42,6.3,37.6c0.5-6.5,2.5-9.8,4.9-13.7c0.3-0.4,0.6-0.9,0.8-1.4
		c0.5-0.8,0.6-1.7,0.4-2.6l-0.3-1.1c0-0.1,0-0.2,0.1-0.3c2.4-3.8,5.3-7,8.9-9.6c3.1-2.3,6.9-3.5,10.6-3.5c1.6,0,3.3,0.2,4.9,0.7
		c0.1,0,0.2,0.1,0.3,0.1c-1.6,2-4.3,3.3-7.1,4.6c-3.1,1.4-7.4,3.2-9.5,7c-0.4,0.7-0.1,1.6,0.6,2c0.2,0.1,0.5,0.2,0.7,0.2
		c0.5,0,1-0.3,1.3-0.8c1.4-2.7,4.5-4.2,8-5.7c3.3-1.4,6.7-3.1,8.7-6.1c5.5,3.1,6.1,8.3,6.1,8.5c0,0,0,0.1,0,0.1
		c0.7,4.1-1.7,8.2-7.3,12.1C34,31.2,29.4,33,29.3,33C13.1,39,9.4,48.7,8.6,52z"/>
	<path style="fill:#7A1422;" d="M59.3,76.8l12.3,7.7L82,91l-1.1,1.7c-0.4,0.7-0.2,1.6,0.5,2c0.2,0.2,0.5,0.2,0.8,0.2
		c0.5,0,1-0.2,1.2-0.7l3.1-5l3.1,1.9l-0.2,0.4c-0.8,1.2-0.4,2.9,0.8,3.7l2.5,1.6c0.4,0.3,0.9,0.4,1.4,0.4c0.2,0,0.4,0,0.6-0.1
		c0.7-0.2,1.3-0.6,1.7-1.2l5-7.9c0.4-0.6,0.5-1.3,0.3-2c-0.2-0.7-0.6-1.3-1.2-1.7l-2.5-1.6c-1.2-0.8-2.9-0.4-3.7,0.8L94,84.1
		L91,82.2l1.3-2.1l1.9-3c0.4-0.7,0.2-1.6-0.5-2c-0.7-0.4-1.6-0.2-2,0.5l-1.1,1.7l-10.4-6.5c0,0,0,0,0,0L74,66.9c0,0,0,0,0,0
		c0,0,0,0,0,0l-6.2-3.9c-0.7-0.4-1.4-0.5-2.2-0.4c-0.6,0.1-1.1,0.5-1.5,0.9l-1.8-1.1c-0.7-0.4-1.5-0.6-2.3-0.4
		c-0.8,0.2-1.4,0.7-1.9,1.3l-0.6,1L52.7,61c-0.7-0.5-1.6-0.3-2,0.4c-0.5,0.7-0.3,1.6,0.4,2l5,3.5L55.3,68c-0.9,1.4-0.4,3.3,1,4.1
		l1.8,1.1c-0.2,0.6-0.3,1.2-0.2,1.8C58.1,75.8,58.6,76.4,59.3,76.8z M92,92.9l0.9-1.4l2.9-4.7l0.9-1.4l2,1.3L94,94.2L92,92.9z
		 M88.1,86.8l1.4-2.2l3.1,1.9l-1.4,2.2L88.1,86.8z M74.4,82.8l5.5-8.8l3,1.9l-1.6,2.6c-0.4,0.7-0.2,1.6,0.5,2
		c0.2,0.2,0.5,0.2,0.8,0.2c0.5,0,1-0.2,1.2-0.7l1.6-2.6l3.7,2.3l-1.3,2.1l-4.2,6.7L74.4,82.8z M60.8,74.4l0.5-0.8c0,0,0,0,0,0
		l4.3-6.8l0.7-1.1l4.9,3.1l-1.6,2.6c-0.4,0.7-0.2,1.6,0.5,2c0.2,0.2,0.5,0.2,0.8,0.2c0.5,0,1-0.2,1.2-0.7l1.6-2.6l3.7,2.3l-5.5,8.8
		L60.8,74.4z M59.6,70.7l-1.8-1.1c0,0,0,0,0,0c0,0,0,0,0,0l2.8-4.5c0,0,0,0,0,0c0,0,0,0,0,0l1.8,1.1L59.6,70.7z"/>
</g>
</svg>
