<?xml version="1.0" encoding="utf-8"?>
<!-- Generator: Adobe Illustrator 24.0.0, SVG Export Plug-In . SVG Version: 6.00 Build 0)  -->
<svg version="1.1" id="Capa_1" xmlns="http://www.w3.org/2000/svg" xmlns:xlink="http://www.w3.org/1999/xlink" x="0px" y="0px"
	 viewBox="0 0 105 105" style="enable-background:new 0 0 105 105;" xml:space="preserve">
<g>
	<path style="fill:none;stroke:#FFFFFF;stroke-width:4;stroke-miterlimit:10;" d="M77.6,95.3c-7.3,4.2-15.7,6.3-25.1,6.3
		c-9.4,0-17.8-2.1-25.1-6.3C20.1,91,14.3,85.2,10.3,77.7c-4.1-7.5-6.1-15.9-6.1-25.2c0-9.3,2-17.7,6.1-25.2
		c4.1-7.5,9.8-13.4,17.1-17.6c7.3-4.2,15.7-6.3,25.1-6.3c9.4,0,17.8,2.1,25.1,6.3c7.3,4.2,13.1,10.1,17.1,17.6
		c4.1,7.5,6.1,15.9,6.1,25.2c0,9.3-2,17.7-6.1,25.2C90.7,85.2,84.9,91,77.6,95.3z M38.3,80c4.1,2.7,8.8,4.1,14.2,4.1
		c5.3,0,10-1.4,14.1-4.1c4.1-2.7,7.2-6.5,9.5-11.2c2.2-4.8,3.3-10.2,3.3-16.3c0-6.1-1.1-11.5-3.3-16.3c-2.2-4.8-5.4-8.5-9.5-11.2
		c-4.1-2.7-8.8-4.1-14.1-4.1c-5.4,0-10.1,1.4-14.2,4.1s-7.2,6.5-9.5,11.2c-2.2,4.8-3.3,10.2-3.3,16.3c0,6.1,1.1,11.5,3.3,16.3
		C31,73.6,34.2,77.3,38.3,80z"/>
</g>
</svg>
