<?xml version="1.0" encoding="utf-8"?>
<!-- Generator: Adobe Illustrator 24.0.0, SVG Export Plug-In . SVG Version: 6.00 Build 0)  -->
<svg version="1.1" id="Capa_1" xmlns="http://www.w3.org/2000/svg" xmlns:xlink="http://www.w3.org/1999/xlink" x="0px" y="0px"
	 viewBox="0 0 105 105" style="enable-background:new 0 0 105 105;" xml:space="preserve">
<g>
	<path style="fill:none;stroke:#FFFFFF;stroke-width:4;stroke-miterlimit:10;" d="M76.8,7.9c6.3,2.7,11.1,6.5,14.5,11.4
		c3.4,5,5.1,10.7,5.1,17.2s-1.7,12.3-5.1,17.2c-3.4,4.9-8.3,8.7-14.5,11.4c-6.3,2.7-13.5,4-21.6,4h-22V102H8.6V3.9h46.5
		C63.3,3.9,70.5,5.2,76.8,7.9z M52.8,51.5c5.8,0,10.3-1.4,13.7-4.1c3.4-2.7,5.1-6.4,5.1-10.9c0-4.7-1.7-8.4-5.1-11.1
		c-3.4-2.7-7.9-4.1-13.7-4.1H33.1v30.1H52.8z"/>
</g>
</svg>
