<?xml version="1.0" encoding="utf-8"?>
<!-- Generator: Adobe Illustrator 24.0.0, SVG Export Plug-In . SVG Version: 6.00 Build 0)  -->
<svg version="1.1" id="Capa_1" xmlns="http://www.w3.org/2000/svg" xmlns:xlink="http://www.w3.org/1999/xlink" x="0px" y="0px"
	 viewBox="0 0 175 140" style="enable-background:new 0 0 175 140;" xml:space="preserve">
<ellipse style="fill:#FFFFFF;" cx="87.5" cy="70" rx="83" ry="67.01"/>
<g>
	<path style="fill:#FF0043;" d="M154.66,66.2c-0.48,0.18-0.79,0.32-0.92,0.43c-0.13,0.11-0.37,0.4-0.72,0.89
		c-1.27,1.84-2.58,3.6-3.93,5.28c-1.36,1.68-2.84,3.27-4.46,4.75c-0.52,0.48-1.06,0.92-1.61,1.31c-0.55,0.39-1.13,0.74-1.74,1.05
		c-2.06,1.01-3.69,0.55-4.92-1.38c-0.31-0.39-0.56-0.83-0.75-1.31c-0.2-0.48-0.43-0.98-0.69-1.51c1.4-0.17,2.48-0.37,3.25-0.59
		c0.76-0.22,1.5-0.61,2.2-1.18c2.19-1.75,3.78-3.75,4.79-6c1.01-2.25,1.38-4.8,1.11-7.64c-0.09-1.09-0.52-2.1-1.31-3.02
		c-0.79-0.92-1.68-1.44-2.69-1.57c-1.14-0.17-2.26-0.21-3.38-0.1c-1.11,0.11-2.18,0.47-3.18,1.08c-1.01,0.61-1.92,1.31-2.75,2.1
		c-0.83,0.79-1.55,1.66-2.16,2.62c-1.53,2.49-2.59,5.06-3.18,7.7c-0.23,1.04-0.38,2.1-0.44,3.18c-0.48,0.79-0.96,1.57-1.42,2.36
		c-0.83,1.4-1.7,2.8-2.62,4.2c-0.79,1.27-1.64,1.27-2.56,0c-0.57-0.74-1.03-1.66-1.38-2.75c-0.35-1.05-0.61-2.21-0.79-3.48
		c-0.18-1.27-0.32-2.56-0.43-3.87c-0.11-1.31-0.19-2.62-0.23-3.93c-0.04-1.31-0.11-2.53-0.2-3.67c0.74-0.13,1.42-0.25,2.03-0.36
		c0.61-0.11,1.22-0.21,1.84-0.3c0.66-0.13,1.28-0.33,1.87-0.59c0.59-0.26,1.13-0.63,1.61-1.11c0.52-0.48,0.74-0.95,0.66-1.41
		c-0.09-0.46-0.48-0.8-1.18-1.02c-0.7-0.26-1.39-0.38-2.07-0.36c-0.68,0.02-1.39,0.08-2.13,0.16c-0.44,0.09-0.87,0.14-1.31,0.16
		c-0.44,0.02-0.9,0.06-1.38,0.1c-0.04-0.22-0.08-0.42-0.1-0.59c-0.02-0.17-0.03-0.33-0.03-0.46c-0.04-2.1-0.08-4.17-0.1-6.23
		c-0.02-2.05-0.08-4.13-0.16-6.23c0-0.22-0.01-0.47-0.03-0.75c-0.02-0.28-0.08-0.53-0.16-0.75c-0.18-0.57-0.47-0.9-0.89-0.98
		c-0.42-0.09-0.8,0.11-1.15,0.59c-0.31,0.35-0.59,0.73-0.85,1.15c-0.26,0.42-0.44,0.86-0.52,1.34c-0.35,1.27-0.67,2.55-0.95,3.84
		c-0.28,1.29-0.56,2.57-0.82,3.84c-0.22,0.96-0.38,1.93-0.49,2.92c-0.11,0.98-0.25,1.98-0.43,2.98c-0.61,0.04-1.2,0.07-1.77,0.07
		c-0.57,0-1.16,0.04-1.77,0.13c-0.66,0.09-1.09,0.36-1.31,0.82c-0.22,0.46-0.13,0.95,0.26,1.48c0.22,0.31,0.49,0.56,0.82,0.75
		c0.33,0.2,0.67,0.36,1.02,0.49c0.35,0.18,0.73,0.3,1.15,0.36c0.42,0.07,0.84,0.16,1.28,0.3v1.11c-0.09,1.05-0.14,2.2-0.16,3.44
		c-0.01,0.66-0.01,1.32,0,1.98c-0.26,0.28-0.89,0.96-0.95,0.99c-0.07,0.04-0.12,0.11-0.16,0.2c-0.13,0.22-0.24,0.42-0.33,0.59
		c-0.09,0.18-0.2,0.37-0.33,0.59c-0.87,1.4-1.73,2.8-2.56,4.2c-0.83,1.4-1.71,2.8-2.62,4.2c-0.79,1.27-1.64,1.27-2.56,0
		c-0.57-0.74-1.03-1.66-1.38-2.75c-0.35-1.05-0.61-2.21-0.79-3.48c-0.18-1.27-0.32-2.56-0.43-3.87c-0.11-1.31-0.19-2.62-0.23-3.93
		c-0.04-1.31-0.11-2.53-0.2-3.67c0.74-0.13,1.42-0.25,2.03-0.36c0.61-0.11,1.22-0.21,1.84-0.3c0.66-0.13,1.28-0.33,1.87-0.59
		c0.59-0.26,1.13-0.63,1.61-1.11c0.52-0.48,0.74-0.95,0.66-1.41c-0.09-0.46-0.48-0.8-1.18-1.02c-0.7-0.26-1.39-0.38-2.07-0.36
		c-0.68,0.02-1.39,0.08-2.13,0.16c-0.44,0.09-0.87,0.14-1.31,0.16c-0.44,0.02-0.9,0.06-1.38,0.1c-0.04-0.22-0.08-0.42-0.1-0.59
		c-0.02-0.17-0.03-0.33-0.03-0.46c-0.04-2.1-0.08-4.17-0.1-6.23c-0.02-2.05-0.08-4.13-0.16-6.23c0-0.22-0.01-0.47-0.03-0.75
		c-0.02-0.28-0.08-0.53-0.16-0.75c-0.18-0.57-0.47-0.9-0.89-0.98c-0.42-0.09-0.8,0.11-1.15,0.59c-0.31,0.35-0.59,0.73-0.85,1.15
		c-0.26,0.42-0.44,0.86-0.52,1.34c-0.35,1.27-0.67,2.55-0.95,3.84c-0.28,1.29-0.56,2.57-0.82,3.84c-0.22,0.96-0.38,1.93-0.49,2.92
		c-0.11,0.98-0.25,1.98-0.43,2.98c-0.61,0.04-1.2,0.07-1.77,0.07c-0.57,0-1.16,0.04-1.77,0.13c-0.66,0.09-1.09,0.36-1.31,0.82
		c-0.22,0.46-0.13,0.95,0.26,1.48c0.22,0.31,0.49,0.56,0.82,0.75c0.33,0.2,0.67,0.36,1.02,0.49c0.35,0.18,0.73,0.3,1.15,0.36
		c0.42,0.07,0.84,0.16,1.28,0.29v1.11c-0.09,1.05-0.14,2.2-0.16,3.44c-0.02,1.21,0,2.42,0.06,3.65c-0.8,1.09-1.61,2.15-2.44,3.18
		c-1.36,1.68-2.84,3.27-4.46,4.75c-0.52,0.48-1.06,0.92-1.61,1.31c-0.55,0.39-1.13,0.74-1.74,1.05c-2.06,1.01-3.69,0.55-4.92-1.38
		c-0.31-0.39-0.56-0.83-0.75-1.31c-0.2-0.48-0.43-0.98-0.69-1.51c1.4-0.17,2.48-0.37,3.25-0.59c0.76-0.22,1.5-0.61,2.2-1.18
		c2.19-1.75,3.78-3.75,4.79-6c1.01-2.25,1.38-4.8,1.11-7.64c-0.09-1.09-0.52-2.1-1.31-3.02c-0.79-0.92-1.68-1.44-2.69-1.57
		c-1.14-0.17-2.26-0.21-3.38-0.1c-1.11,0.11-2.18,0.47-3.18,1.08c-1.01,0.61-1.92,1.31-2.75,2.1c-0.83,0.79-1.55,1.66-2.16,2.62
		c-1.53,2.49-2.59,5.06-3.18,7.7c-0.17,0.75-0.29,1.51-0.37,2.28c-0.61,1.22-1.29,2.44-2.03,3.66c-0.48,0.74-0.98,1.45-1.51,2.13
		c-0.52,0.68-1.07,1.37-1.64,2.07c-0.39,0.48-0.9,0.83-1.51,1.05c-1.09,0.52-1.88,0.22-2.36-0.92c-0.35-0.96-0.61-1.94-0.79-2.95
		c-0.35-1.79-0.54-3.57-0.56-5.34c-0.02-1.77-0.03-3.57-0.03-5.41c0-0.35,0.09-0.64,0.26-0.89c0.17-0.24,0.37-0.47,0.59-0.69
		c0.74-0.61,1.45-1.2,2.13-1.77c0.68-0.57,1.32-1.18,1.93-1.84c1.75-1.79,3.07-3.77,3.97-5.93c0.9-2.16,1.65-4.43,2.26-6.79
		c0.35-1.44,0.52-2.86,0.52-4.26c0-1.4-0.18-2.8-0.52-4.2c-0.22-0.87-0.57-1.66-1.05-2.36c-0.48-0.7-1.18-1.16-2.1-1.38
		c-1.88-0.48-3.65-0.28-5.31,0.59c-2.71,1.53-4.66,3.69-5.84,6.49c-1.18,2.75-2.1,5.56-2.75,8.43c-0.66,2.86-1.09,5.78-1.31,8.75
		c-0.22,2.71-0.25,5.41-0.1,8.1c0.07,1.28,0.19,2.55,0.35,3.82c-0.44,1.01-0.89,2.02-1.36,3.03c-0.92,1.97-2.08,3.78-3.48,5.44
		c-0.44,0.44-0.85,0.6-1.25,0.49c-0.39-0.11-0.7-0.45-0.92-1.02c-0.26-0.7-0.39-1.46-0.39-2.3c0.04-2.23,0.26-4.41,0.66-6.56
		c0.39-2.14,0.79-4.28,1.18-6.43c0.39-1.79,0.66-3.65,0.79-5.57c0.09-1.14-0.21-1.92-0.89-2.36c-0.68-0.44-1.52-0.39-2.52,0.13
		c-0.35,0.22-0.69,0.44-1.02,0.66c-0.33,0.22-0.65,0.42-0.95,0.59c-0.48-0.26-0.93-0.51-1.34-0.75c-0.42-0.24-0.84-0.45-1.28-0.62
		c-1.53-0.57-2.97-0.68-4.33-0.33c-1.36,0.35-2.62,1.03-3.8,2.03c-5.94,5.11-8.59,11.61-7.93,19.48c0.09,1.18,0.36,2.33,0.82,3.44
		c0.46,1.11,1.13,2.11,2,2.98c1.05,1.01,2.19,1.54,3.41,1.61c1.22,0.07,2.4-0.34,3.54-1.21c0.35-0.35,0.7-0.69,1.05-1.02
		c0.35-0.33,0.68-0.69,0.98-1.08c0.39-0.48,0.78-0.99,1.15-1.54c0.37-0.55,0.75-1.1,1.15-1.67c0.31,0.52,0.57,1.04,0.79,1.54
		c0.22,0.5,0.5,0.97,0.85,1.41c1.4,2.01,3.05,3.04,4.95,3.08c1.9,0.04,3.62-0.9,5.15-2.82c1.14-1.4,2.13-2.9,2.98-4.49
		c0.27-0.51,0.53-1.02,0.77-1.54c0.2,1,0.43,1.97,0.7,2.91c0.31,1.07,0.76,2.11,1.38,3.11c0.52,0.96,1.22,1.73,2.1,2.3
		c0.87,0.57,1.78,0.92,2.72,1.05c0.94,0.13,1.88,0.03,2.82-0.3c0.94-0.33,1.78-0.91,2.52-1.74c1.77-2.04,3.29-4.21,4.56-6.52
		c0.01,0.08,0.02,0.15,0.03,0.23c0.18,1.01,0.48,1.99,0.92,2.95c0.44,0.96,1.02,1.83,1.74,2.59c0.72,0.77,1.58,1.4,2.59,1.9
		c1.01,0.5,2.21,0.78,3.61,0.82c1.53,0.09,2.95-0.14,4.26-0.69c1.31-0.55,2.51-1.37,3.61-2.46c1.01-1.01,1.99-2.03,2.95-3.08
		c0.96-1.05,1.86-2.14,2.69-3.28c0.72-1,1.38-2.04,2.01-3.11c0.02,0.13,0.03,0.27,0.04,0.41c0.15,1.22,0.36,2.36,0.62,3.41
		c0.31,1.14,0.67,2.22,1.08,3.25c0.42,1.03,0.97,2.02,1.67,2.98c1.22,1.66,2.66,2.57,4.3,2.72c1.64,0.15,3.22-0.47,4.75-1.87
		c0.57-0.48,1.01-1.01,1.31-1.57c0.79-1.44,1.55-2.87,2.3-4.3c0.74-1.42,1.65-2.74,2.39-4.18c0.26-0.52,0.68-1.29,0.9-1.85
		c0.04-0.11,0.14-0.23,0.24-0.34c0.05,0.61,0.12,1.22,0.19,1.83c0.15,1.22,0.36,2.36,0.62,3.41c0.31,1.14,0.67,2.22,1.08,3.25
		c0.42,1.03,0.97,2.02,1.67,2.98c1.22,1.66,2.66,2.57,4.3,2.72c1.64,0.15,3.22-0.47,4.75-1.87c0.57-0.48,1.01-1.01,1.31-1.57
		c0.79-1.44,1.55-2.87,2.3-4.3c0.22-0.41,0.43-0.84,0.65-1.25c0.02,0.17,0.04,0.33,0.07,0.5c0.18,1.01,0.48,1.99,0.92,2.95
		c0.44,0.96,1.02,1.83,1.74,2.59c0.72,0.77,1.58,1.4,2.59,1.9c1.01,0.5,2.21,0.78,3.61,0.82c1.53,0.09,2.95-0.14,4.26-0.69
		c1.31-0.55,2.51-1.37,3.61-2.46c1.01-1.01,1.99-2.03,2.95-3.08c0.96-1.05,1.86-2.14,2.69-3.28c0.87-1.22,1.68-2.49,2.43-3.8
		c0.74-1.31,1.49-2.62,2.23-3.93c0.22-0.35,0.38-0.71,0.49-1.08C155.07,66.98,154.97,66.6,154.66,66.2z M56.36,58.2
		c0-0.52,0.04-1.03,0.13-1.51c0.39-2.23,0.82-4.46,1.28-6.69c0.46-2.23,1.08-4.42,1.87-6.56c0.26-0.66,0.53-1.29,0.82-1.9
		c0.28-0.61,0.58-1.22,0.89-1.84c0.22-0.39,0.48-0.78,0.79-1.15c0.31-0.37,0.63-0.78,0.98-1.21c0.48,0.48,0.79,0.96,0.92,1.44
		c0.13,0.48,0.22,0.98,0.26,1.51c0.09,1.53,0,3.02-0.26,4.46c-0.26,1.44-0.63,2.86-1.11,4.26c-0.39,1.14-0.82,2.25-1.28,3.34
		c-0.46,1.09-0.93,2.19-1.41,3.28c-0.39,0.87-0.93,1.65-1.61,2.33c-0.68,0.68-1.45,1.39-2.33,2.13
		C56.33,59.36,56.36,58.73,56.36,58.2z M35.83,63.19c-0.44,1.14-0.77,2.32-0.98,3.54c-0.18,0.88-0.32,1.77-0.43,2.69
		c-0.11,0.92-0.23,1.81-0.36,2.69C34.02,72.37,34,72.63,34,72.89c0,0.26-0.07,0.5-0.2,0.72c-0.57,1.14-1.14,2.25-1.7,3.34
		c-0.57,1.09-1.16,2.19-1.77,3.28c-0.22,0.35-0.5,0.7-0.85,1.05c-0.35,0.35-0.79,0.46-1.31,0.33c-0.48-0.13-0.78-0.42-0.89-0.85
		c-0.11-0.44-0.21-0.85-0.3-1.25c-0.26-0.79-0.38-1.57-0.36-2.36c0.02-0.79,0.08-1.6,0.16-2.43c0.39-2.36,1.05-4.61,1.97-6.75
		c0.92-2.14,2.14-4.15,3.67-6.03c0.35-0.35,0.7-0.68,1.05-0.98c0.35-0.31,0.72-0.61,1.11-0.92c0.39-0.26,0.83-0.45,1.31-0.56
		c0.48-0.11,1.05-0.01,1.71,0.3C36.86,60.91,36.27,62.05,35.83,63.19z M74.13,67.81c0.31-1.25,0.75-2.47,1.34-3.67
		c0.59-1.2,1.26-2.31,2-3.31c0.74-1.01,1.51-1.7,2.3-2.1c0.09,0.18,0.19,0.34,0.3,0.49c0.11,0.15,0.16,0.34,0.16,0.56
		c-0.04,0.48-0.08,0.95-0.1,1.41c-0.02,0.46-0.08,0.93-0.16,1.41c-0.7,2.8-1.97,5.18-3.8,7.15c-0.61,0.74-1.38,1.18-2.3,1.31
		C73.73,70.14,73.82,69.05,74.13,67.81z M135.06,67.81c0.31-1.25,0.75-2.47,1.34-3.67c0.59-1.2,1.26-2.31,2-3.31
		c0.74-1.01,1.51-1.7,2.3-2.1c0.09,0.18,0.19,0.34,0.3,0.49c0.11,0.15,0.16,0.34,0.16,0.56c-0.04,0.48-0.08,0.95-0.1,1.41
		c-0.02,0.46-0.08,0.93-0.16,1.41c-0.7,2.8-1.97,5.18-3.8,7.15c-0.61,0.74-1.38,1.18-2.3,1.31
		C134.66,70.14,134.75,69.05,135.06,67.81z"/>
	<g>
		<path style="fill:#FF0043;" d="M30.88,91.2v13.36h-2.35V91.2H30.88z"/>
		<path style="fill:#FF0043;" d="M43,99.18v5.38h-2.23v-5.27c0-0.93-0.21-1.64-0.63-2.12c-0.42-0.48-1.04-0.73-1.86-0.73
			c-0.87,0-1.56,0.28-2.05,0.85c-0.5,0.57-0.75,1.35-0.75,2.34v4.93h-2.21v-9.77h1.92l0.25,1.28c0.79-0.93,1.91-1.39,3.35-1.39
			c1.24,0,2.25,0.36,3.04,1.07C42.61,96.46,43,97.6,43,99.18z"/>
		<path style="fill:#FF0043;" d="M43.86,96.6v-1.81h1.82v-2.73h2.23v2.73h2.51v1.81h-2.51v5.1c0,0.38,0.08,0.65,0.25,0.81
			c0.16,0.16,0.44,0.24,0.84,0.24h1.68v1.81h-2.13c-0.99,0-1.72-0.22-2.18-0.65c-0.46-0.43-0.68-1.1-0.68-2V96.6H43.86z"/>
		<path style="fill:#FF0043;" d="M53.68,95.29c0.77-0.41,1.65-0.62,2.65-0.62c1.01,0,1.9,0.19,2.67,0.57
			c0.77,0.38,1.38,0.92,1.82,1.62c0.44,0.7,0.67,1.52,0.68,2.46c0,0.25-0.02,0.52-0.06,0.78h-7.89v0.11
			c0.05,0.85,0.34,1.53,0.86,2.02c0.52,0.5,1.21,0.74,2.06,0.74c0.68,0,1.25-0.15,1.72-0.45c0.46-0.3,0.77-0.72,0.92-1.27h2.21
			c-0.19,0.99-0.71,1.81-1.54,2.44s-1.88,0.95-3.14,0.95c-1.09,0-2.04-0.21-2.85-0.62c-0.81-0.41-1.44-1-1.88-1.75
			c-0.44-0.75-0.66-1.62-0.66-2.62c0-1.01,0.21-1.89,0.64-2.64C52.31,96.29,52.91,95.71,53.68,95.29z M58.34,96.94
			c-0.51-0.4-1.15-0.6-1.93-0.6c-0.72,0-1.35,0.21-1.87,0.62c-0.52,0.41-0.83,0.96-0.91,1.65h5.62
			C59.16,97.89,58.86,97.34,58.34,96.94z"/>
		<path style="fill:#FF0043;" d="M69.07,96.72h-0.98c-0.91,0-1.57,0.28-1.98,0.83c-0.41,0.55-0.61,1.26-0.61,2.11v4.91h-2.21v-9.77
			h1.96l0.25,1.47c0.3-0.46,0.69-0.82,1.17-1.08s1.12-0.39,1.92-0.39h0.49V96.72z"/>
		<path style="fill:#FF0043;" d="M80.21,99.18v5.38h-2.23v-5.27c0-0.93-0.21-1.64-0.63-2.12c-0.42-0.48-1.04-0.73-1.86-0.73
			c-0.87,0-1.56,0.28-2.05,0.85c-0.5,0.57-0.75,1.35-0.75,2.34v4.93h-2.21v-9.77h1.92l0.25,1.28c0.79-0.93,1.91-1.39,3.35-1.39
			c1.24,0,2.25,0.36,3.04,1.07C79.82,96.46,80.21,97.6,80.21,99.18z"/>
		<path style="fill:#FF0043;" d="M92.23,104.56h-1.17c-0.68,0-1.17-0.13-1.47-0.4c-0.3-0.27-0.45-0.66-0.45-1.16
			c-0.79,1.12-1.94,1.68-3.45,1.68c-1.17,0-2.11-0.25-2.82-0.76c-0.71-0.51-1.06-1.21-1.06-2.1c0-1.01,0.38-1.78,1.14-2.32
			c0.76-0.54,1.87-0.81,3.33-0.81h2.64v-0.59c0-0.55-0.2-0.98-0.61-1.29c-0.41-0.31-0.97-0.47-1.7-0.47c-0.64,0-1.17,0.13-1.58,0.39
			c-0.42,0.26-0.66,0.61-0.75,1.04h-2.17c0.11-0.98,0.57-1.74,1.39-2.28c0.82-0.54,1.89-0.81,3.21-0.81c1.4,0,2.49,0.31,3.25,0.92
			c0.76,0.61,1.14,1.49,1.14,2.63v3.86c0,0.46,0.23,0.69,0.69,0.69h0.43V104.56z M86.18,100.21c-0.68,0-1.21,0.12-1.57,0.37
			s-0.55,0.61-0.55,1.1c0,0.42,0.17,0.76,0.52,1.01c0.35,0.25,0.82,0.38,1.42,0.38c0.91,0,1.63-0.23,2.14-0.69
			c0.51-0.46,0.77-1.07,0.79-1.83v-0.34H86.18z"/>
		<path style="fill:#FF0043;" d="M98.26,104.68c-1.04,0-1.95-0.21-2.74-0.62c-0.79-0.41-1.4-1-1.83-1.77
			c-0.43-0.76-0.64-1.64-0.64-2.63s0.22-1.86,0.65-2.62c0.44-0.75,1.05-1.33,1.85-1.75c0.8-0.41,1.72-0.62,2.77-0.62
			c1.31,0,2.38,0.32,3.21,0.96c0.83,0.64,1.35,1.52,1.55,2.62h-2.27c-0.15-0.56-0.45-1.01-0.9-1.34c-0.45-0.33-1-0.5-1.66-0.5
			c-0.89,0-1.6,0.3-2.14,0.9c-0.54,0.6-0.81,1.37-0.81,2.33c0,0.97,0.27,1.75,0.81,2.36c0.54,0.6,1.25,0.91,2.14,0.91
			c0.68,0,1.25-0.17,1.7-0.51c0.45-0.34,0.74-0.79,0.88-1.36h2.25c-0.2,1.13-0.73,2.02-1.57,2.66S99.59,104.68,98.26,104.68z"/>
		<path style="fill:#FF0043;" d="M107.32,92.12c0,0.36-0.13,0.65-0.39,0.89c-0.26,0.24-0.58,0.35-0.96,0.35
			c-0.38,0-0.7-0.12-0.96-0.35c-0.26-0.24-0.39-0.53-0.39-0.89c0-0.36,0.13-0.65,0.39-0.89c0.26-0.24,0.58-0.35,0.96-0.35
			c0.38,0,0.7,0.12,0.96,0.35C107.19,91.46,107.32,91.76,107.32,92.12z M107.08,94.79v9.77h-2.21v-9.77H107.08z"/>
		<path style="fill:#FF0043;" d="M109.52,102.3c-0.44-0.76-0.66-1.63-0.66-2.62c0-0.98,0.22-1.85,0.66-2.61
			c0.44-0.76,1.07-1.35,1.88-1.77c0.81-0.42,1.74-0.63,2.79-0.63s1.98,0.21,2.79,0.63c0.81,0.42,1.44,1.01,1.88,1.77
			c0.44,0.76,0.66,1.63,0.66,2.61c0,0.99-0.22,1.87-0.66,2.62c-0.44,0.76-1.07,1.34-1.88,1.76c-0.81,0.41-1.74,0.62-2.79,0.62
			s-1.98-0.21-2.79-0.62C110.59,103.64,109.96,103.06,109.52,102.3z M117.28,99.68c0-0.95-0.28-1.73-0.85-2.34
			c-0.57-0.6-1.31-0.91-2.24-0.91s-1.67,0.3-2.23,0.91c-0.56,0.6-0.84,1.38-0.84,2.34c0,0.95,0.28,1.73,0.84,2.34
			c0.56,0.6,1.3,0.91,2.23,0.91s1.67-0.3,2.24-0.91C116.99,101.41,117.28,100.63,117.28,99.68z"/>
		<path style="fill:#FF0043;" d="M131.04,99.18v5.38h-2.23v-5.27c0-0.93-0.21-1.64-0.63-2.12c-0.42-0.48-1.04-0.73-1.86-0.73
			c-0.87,0-1.56,0.28-2.05,0.85c-0.5,0.57-0.75,1.35-0.75,2.34v4.93h-2.21v-9.77h1.92l0.24,1.28c0.79-0.93,1.91-1.39,3.35-1.39
			c1.24,0,2.25,0.36,3.04,1.07C130.64,96.46,131.04,97.6,131.04,99.18z"/>
		<path style="fill:#FF0043;" d="M143.06,104.56h-1.17c-0.68,0-1.17-0.13-1.47-0.4c-0.3-0.27-0.45-0.66-0.45-1.16
			c-0.79,1.12-1.94,1.68-3.46,1.68c-1.17,0-2.11-0.25-2.82-0.76c-0.71-0.51-1.06-1.21-1.06-2.1c0-1.01,0.38-1.78,1.14-2.32
			c0.76-0.54,1.87-0.81,3.33-0.81h2.64v-0.59c0-0.55-0.2-0.98-0.61-1.29c-0.41-0.31-0.97-0.47-1.7-0.47c-0.64,0-1.17,0.13-1.58,0.39
			c-0.42,0.26-0.66,0.61-0.75,1.04h-2.17c0.11-0.98,0.57-1.74,1.39-2.28c0.82-0.54,1.89-0.81,3.21-0.81c1.4,0,2.49,0.31,3.25,0.92
			c0.76,0.61,1.14,1.49,1.14,2.63v3.86c0,0.46,0.23,0.69,0.69,0.69h0.43V104.56z M137.01,100.21c-0.68,0-1.21,0.12-1.57,0.37
			c-0.37,0.25-0.55,0.61-0.55,1.1c0,0.42,0.17,0.76,0.52,1.01s0.82,0.38,1.42,0.38c0.91,0,1.63-0.23,2.14-0.69
			c0.51-0.46,0.77-1.07,0.79-1.83v-0.34H137.01z"/>
		<path style="fill:#FF0043;" d="M146.47,91.2v13.36h-2.21V91.2H146.47z"/>
	</g>
</g>
</svg>
