<?xml version="1.0" encoding="utf-8"?>
<!-- Generator: Adobe Illustrator 24.0.0, SVG Export Plug-In . SVG Version: 6.00 Build 0)  -->
<svg version="1.1" id="Capa_1" xmlns="http://www.w3.org/2000/svg" xmlns:xlink="http://www.w3.org/1999/xlink" x="0px" y="0px"
	 viewBox="0 0 80 80" style="enable-background:new 0 0 80 80;" xml:space="preserve">
<ellipse style="fill:#FFFFFF;" cx="40" cy="40" rx="38.68" ry="31.23"/>
<g>
	<path style="fill:#FF0043;" d="M71.3,38.23c-0.22,0.08-0.37,0.15-0.43,0.2c-0.06,0.05-0.17,0.19-0.34,0.41
		c-0.59,0.86-1.2,1.68-1.83,2.46c-0.63,0.78-1.32,1.52-2.08,2.22c-0.24,0.22-0.49,0.43-0.75,0.61c-0.25,0.18-0.52,0.35-0.81,0.49
		c-0.96,0.47-1.72,0.26-2.29-0.64c-0.14-0.18-0.26-0.39-0.35-0.61c-0.09-0.22-0.2-0.46-0.32-0.7c0.65-0.08,1.16-0.17,1.51-0.28
		c0.36-0.1,0.7-0.29,1.02-0.55c1.02-0.81,1.76-1.75,2.23-2.8c0.47-1.05,0.64-2.24,0.52-3.56c-0.04-0.51-0.24-0.98-0.61-1.41
		c-0.37-0.43-0.78-0.67-1.25-0.73c-0.53-0.08-1.05-0.1-1.57-0.05c-0.52,0.05-1.01,0.22-1.48,0.5c-0.47,0.29-0.9,0.61-1.28,0.98
		c-0.39,0.37-0.72,0.77-1.01,1.22c-0.71,1.16-1.21,2.36-1.48,3.59c-0.11,0.49-0.18,0.98-0.21,1.48c-0.22,0.37-0.45,0.73-0.66,1.1
		c-0.39,0.65-0.79,1.3-1.22,1.96c-0.37,0.59-0.76,0.59-1.19,0c-0.27-0.35-0.48-0.77-0.64-1.28c-0.16-0.49-0.29-1.03-0.37-1.62
		c-0.08-0.59-0.15-1.19-0.2-1.8c-0.05-0.61-0.09-1.22-0.11-1.83c-0.02-0.61-0.05-1.18-0.09-1.71c0.35-0.06,0.66-0.12,0.95-0.17
		c0.29-0.05,0.57-0.1,0.86-0.14c0.31-0.06,0.6-0.15,0.87-0.27c0.28-0.12,0.52-0.3,0.75-0.52c0.24-0.22,0.35-0.44,0.31-0.66
		c-0.04-0.21-0.22-0.37-0.55-0.47c-0.33-0.12-0.65-0.18-0.96-0.17c-0.32,0.01-0.65,0.04-0.99,0.08c-0.2,0.04-0.41,0.07-0.61,0.08
		c-0.2,0.01-0.42,0.03-0.64,0.05c-0.02-0.1-0.04-0.19-0.05-0.28c-0.01-0.08-0.02-0.15-0.02-0.21c-0.02-0.98-0.04-1.95-0.05-2.9
		c-0.01-0.96-0.04-1.93-0.08-2.9c0-0.1-0.01-0.22-0.02-0.35c-0.01-0.13-0.04-0.25-0.08-0.35c-0.08-0.26-0.22-0.42-0.41-0.46
		c-0.19-0.04-0.37,0.05-0.53,0.27c-0.14,0.16-0.27,0.34-0.4,0.53c-0.12,0.19-0.2,0.4-0.24,0.63c-0.16,0.59-0.31,1.19-0.44,1.79
		c-0.13,0.6-0.26,1.2-0.38,1.79c-0.1,0.45-0.18,0.9-0.23,1.36c-0.05,0.46-0.12,0.92-0.2,1.39c-0.29,0.02-0.56,0.03-0.83,0.03
		c-0.26,0-0.54,0.02-0.83,0.06c-0.31,0.04-0.51,0.17-0.61,0.38c-0.1,0.21-0.06,0.44,0.12,0.69c0.1,0.14,0.23,0.26,0.38,0.35
		c0.15,0.09,0.31,0.17,0.47,0.23c0.16,0.08,0.34,0.14,0.53,0.17c0.19,0.03,0.39,0.08,0.6,0.14v0.52c-0.04,0.49-0.07,1.02-0.08,1.6
		c-0.01,0.31,0,0.61,0,0.92c-0.12,0.13-0.42,0.45-0.44,0.46c-0.03,0.02-0.06,0.05-0.08,0.09c-0.06,0.1-0.11,0.19-0.15,0.27
		c-0.04,0.08-0.09,0.17-0.15,0.27c-0.41,0.65-0.81,1.3-1.19,1.96c-0.39,0.65-0.79,1.3-1.22,1.96c-0.37,0.59-0.76,0.59-1.19,0
		c-0.27-0.35-0.48-0.77-0.64-1.28c-0.16-0.49-0.29-1.03-0.37-1.62c-0.08-0.59-0.15-1.19-0.2-1.8c-0.05-0.61-0.09-1.22-0.11-1.83
		c-0.02-0.61-0.05-1.18-0.09-1.71c0.35-0.06,0.66-0.12,0.95-0.17c0.29-0.05,0.57-0.1,0.86-0.14c0.31-0.06,0.6-0.15,0.87-0.27
		c0.28-0.12,0.52-0.3,0.75-0.52c0.24-0.22,0.35-0.44,0.31-0.66c-0.04-0.21-0.22-0.37-0.55-0.47c-0.33-0.12-0.65-0.18-0.96-0.17
		c-0.32,0.01-0.65,0.04-0.99,0.08c-0.2,0.04-0.41,0.07-0.61,0.08c-0.2,0.01-0.42,0.03-0.64,0.05c-0.02-0.1-0.04-0.19-0.05-0.28
		c-0.01-0.08-0.02-0.15-0.02-0.21c-0.02-0.98-0.04-1.95-0.05-2.9c-0.01-0.96-0.04-1.93-0.08-2.9c0-0.1-0.01-0.22-0.02-0.35
		c-0.01-0.13-0.04-0.25-0.08-0.35c-0.08-0.26-0.22-0.42-0.41-0.46c-0.19-0.04-0.37,0.05-0.53,0.27c-0.14,0.16-0.27,0.34-0.4,0.53
		c-0.12,0.19-0.2,0.4-0.24,0.63c-0.16,0.59-0.31,1.19-0.44,1.79c-0.13,0.6-0.26,1.2-0.38,1.79c-0.1,0.45-0.18,0.9-0.23,1.36
		c-0.05,0.46-0.12,0.92-0.2,1.39c-0.29,0.02-0.56,0.03-0.83,0.03c-0.26,0-0.54,0.02-0.83,0.06c-0.31,0.04-0.51,0.17-0.61,0.38
		c-0.1,0.21-0.06,0.44,0.12,0.69c0.1,0.14,0.23,0.26,0.38,0.35c0.15,0.09,0.31,0.17,0.47,0.23c0.16,0.08,0.34,0.14,0.53,0.17
		c0.19,0.03,0.39,0.08,0.6,0.14v0.52c-0.04,0.49-0.07,1.02-0.08,1.6c-0.01,0.56,0,1.13,0.03,1.7c-0.37,0.51-0.75,1-1.14,1.48
		c-0.63,0.78-1.32,1.52-2.08,2.22c-0.24,0.22-0.49,0.43-0.75,0.61c-0.25,0.18-0.52,0.35-0.81,0.49c-0.96,0.47-1.72,0.26-2.29-0.64
		c-0.14-0.18-0.26-0.39-0.35-0.61c-0.09-0.22-0.2-0.46-0.32-0.7c0.65-0.08,1.16-0.17,1.51-0.28c0.36-0.1,0.7-0.29,1.02-0.55
		c1.02-0.81,1.76-1.75,2.23-2.8c0.47-1.05,0.64-2.24,0.52-3.56c-0.04-0.51-0.24-0.98-0.61-1.41c-0.37-0.43-0.78-0.67-1.25-0.73
		c-0.53-0.08-1.05-0.1-1.57-0.05c-0.52,0.05-1.01,0.22-1.48,0.5c-0.47,0.29-0.9,0.61-1.28,0.98c-0.39,0.37-0.72,0.77-1.01,1.22
		c-0.71,1.16-1.21,2.36-1.48,3.59c-0.08,0.35-0.13,0.7-0.17,1.06c-0.28,0.57-0.6,1.14-0.94,1.7c-0.22,0.35-0.46,0.68-0.7,0.99
		c-0.24,0.32-0.5,0.64-0.76,0.96c-0.18,0.22-0.42,0.39-0.7,0.49c-0.51,0.24-0.88,0.1-1.1-0.43c-0.16-0.45-0.29-0.91-0.37-1.38
		c-0.16-0.84-0.25-1.67-0.26-2.49c-0.01-0.83-0.02-1.67-0.02-2.52c0-0.16,0.04-0.3,0.12-0.41c0.08-0.11,0.17-0.22,0.27-0.32
		c0.35-0.29,0.68-0.56,0.99-0.83c0.32-0.26,0.62-0.55,0.9-0.86c0.81-0.84,1.43-1.76,1.85-2.77c0.42-1.01,0.77-2.06,1.05-3.16
		c0.16-0.67,0.24-1.33,0.24-1.99c0-0.65-0.08-1.3-0.24-1.96c-0.1-0.41-0.26-0.77-0.49-1.1c-0.22-0.33-0.55-0.54-0.98-0.64
		c-0.88-0.22-1.7-0.13-2.48,0.27c-1.26,0.71-2.17,1.72-2.72,3.03c-0.55,1.28-0.98,2.59-1.28,3.93c-0.31,1.33-0.51,2.69-0.61,4.08
		c-0.1,1.26-0.12,2.52-0.05,3.77c0.03,0.59,0.09,1.19,0.16,1.78c-0.2,0.47-0.41,0.94-0.63,1.41c-0.43,0.92-0.97,1.76-1.62,2.54
		c-0.2,0.2-0.4,0.28-0.58,0.23c-0.18-0.05-0.33-0.21-0.43-0.47c-0.12-0.33-0.18-0.68-0.18-1.07c0.02-1.04,0.12-2.06,0.31-3.06
		c0.18-1,0.37-2,0.55-2.99c0.18-0.84,0.31-1.7,0.37-2.6c0.04-0.53-0.1-0.9-0.41-1.1c-0.32-0.2-0.71-0.18-1.18,0.06
		c-0.16,0.1-0.32,0.2-0.47,0.31c-0.15,0.1-0.3,0.19-0.44,0.27c-0.22-0.12-0.43-0.24-0.63-0.35c-0.19-0.11-0.39-0.21-0.6-0.29
		c-0.71-0.26-1.39-0.32-2.02-0.15c-0.63,0.16-1.22,0.48-1.77,0.95c-2.77,2.38-4,5.41-3.7,9.08c0.04,0.55,0.17,1.08,0.38,1.6
		c0.21,0.52,0.52,0.98,0.93,1.39c0.49,0.47,1.02,0.72,1.59,0.75c0.57,0.03,1.12-0.16,1.65-0.57c0.16-0.16,0.33-0.32,0.49-0.47
		c0.16-0.15,0.32-0.32,0.46-0.5c0.18-0.22,0.36-0.46,0.53-0.72c0.17-0.25,0.35-0.51,0.53-0.78c0.14,0.24,0.26,0.48,0.37,0.72
		c0.1,0.23,0.23,0.45,0.4,0.66c0.65,0.94,1.42,1.42,2.31,1.44c0.89,0.02,1.69-0.42,2.4-1.31c0.53-0.65,0.99-1.35,1.39-2.09
		c0.13-0.24,0.25-0.48,0.36-0.72c0.09,0.46,0.2,0.92,0.33,1.36c0.14,0.5,0.36,0.98,0.64,1.45c0.24,0.45,0.57,0.8,0.98,1.07
		c0.41,0.26,0.83,0.43,1.27,0.49c0.44,0.06,0.88,0.02,1.31-0.14c0.44-0.15,0.83-0.42,1.18-0.81c0.83-0.95,1.53-1.96,2.12-3.04
		c0.01,0.04,0.01,0.07,0.02,0.1c0.08,0.47,0.22,0.93,0.43,1.38c0.2,0.45,0.47,0.85,0.81,1.21c0.34,0.36,0.74,0.65,1.21,0.89
		c0.47,0.23,1.03,0.36,1.68,0.38c0.71,0.04,1.38-0.07,1.99-0.32c0.61-0.25,1.17-0.64,1.68-1.15c0.47-0.47,0.93-0.95,1.38-1.44
		c0.45-0.49,0.87-1,1.25-1.53c0.33-0.47,0.64-0.95,0.93-1.45c0.01,0.06,0.01,0.13,0.02,0.19c0.07,0.57,0.17,1.1,0.29,1.59
		c0.14,0.53,0.31,1.03,0.5,1.51c0.19,0.48,0.45,0.94,0.78,1.39c0.57,0.77,1.24,1.2,2,1.27c0.76,0.07,1.5-0.22,2.22-0.87
		c0.26-0.22,0.47-0.47,0.61-0.73c0.37-0.67,0.72-1.34,1.07-2c0.35-0.66,0.77-1.28,1.12-1.95c0.12-0.24,0.32-0.6,0.42-0.86
		c0.02-0.05,0.06-0.11,0.11-0.16c0.03,0.29,0.06,0.57,0.09,0.85c0.07,0.57,0.17,1.1,0.29,1.59c0.14,0.53,0.31,1.03,0.5,1.51
		c0.19,0.48,0.45,0.94,0.78,1.39c0.57,0.77,1.24,1.2,2,1.27c0.76,0.07,1.5-0.22,2.22-0.87c0.26-0.22,0.47-0.47,0.61-0.73
		c0.37-0.67,0.72-1.34,1.07-2c0.1-0.19,0.2-0.39,0.3-0.58c0.01,0.08,0.02,0.15,0.03,0.23c0.08,0.47,0.22,0.93,0.43,1.38
		c0.2,0.45,0.47,0.85,0.81,1.21c0.34,0.36,0.74,0.65,1.21,0.89c0.47,0.23,1.03,0.36,1.68,0.38c0.71,0.04,1.38-0.07,1.99-0.32
		c0.61-0.25,1.17-0.64,1.68-1.15c0.47-0.47,0.93-0.95,1.38-1.44c0.45-0.49,0.87-1,1.25-1.53c0.41-0.57,0.78-1.16,1.13-1.77
		c0.35-0.61,0.69-1.22,1.04-1.83c0.1-0.16,0.18-0.33,0.23-0.5C71.49,38.59,71.44,38.41,71.3,38.23z M25.49,34.5
		c0-0.24,0.02-0.48,0.06-0.7c0.18-1.04,0.38-2.08,0.6-3.12c0.21-1.04,0.5-2.06,0.87-3.06c0.12-0.31,0.25-0.6,0.38-0.89
		c0.13-0.29,0.27-0.57,0.41-0.86c0.1-0.18,0.22-0.36,0.37-0.53c0.14-0.17,0.3-0.36,0.46-0.57c0.22,0.22,0.37,0.45,0.43,0.67
		c0.06,0.22,0.1,0.46,0.12,0.7c0.04,0.71,0,1.41-0.12,2.08c-0.12,0.67-0.3,1.33-0.52,1.99c-0.18,0.53-0.38,1.05-0.6,1.56
		c-0.21,0.51-0.43,1.02-0.66,1.53c-0.18,0.41-0.43,0.77-0.75,1.08c-0.32,0.32-0.68,0.65-1.08,0.99
		C25.48,35.04,25.49,34.75,25.49,34.5z M15.92,36.82c-0.2,0.53-0.36,1.08-0.46,1.65c-0.08,0.41-0.15,0.83-0.2,1.25
		c-0.05,0.43-0.11,0.85-0.17,1.25c-0.02,0.12-0.03,0.24-0.03,0.37c0,0.12-0.03,0.23-0.09,0.34c-0.27,0.53-0.53,1.05-0.79,1.56
		c-0.27,0.51-0.54,1.02-0.83,1.53c-0.1,0.16-0.23,0.33-0.4,0.49c-0.16,0.16-0.37,0.21-0.61,0.15c-0.22-0.06-0.36-0.19-0.41-0.4
		c-0.05-0.2-0.1-0.4-0.14-0.58c-0.12-0.37-0.18-0.73-0.17-1.1c0.01-0.37,0.04-0.74,0.08-1.13c0.18-1.1,0.49-2.15,0.92-3.15
		c0.43-1,1-1.94,1.71-2.81c0.16-0.16,0.33-0.32,0.49-0.46c0.16-0.14,0.34-0.29,0.52-0.43c0.18-0.12,0.39-0.21,0.61-0.26
		c0.22-0.05,0.49,0,0.79,0.14C16.4,35.77,16.13,36.29,15.92,36.82z M33.77,38.98c0.14-0.58,0.35-1.15,0.63-1.71
		c0.27-0.56,0.59-1.07,0.93-1.54c0.35-0.47,0.7-0.79,1.07-0.98c0.04,0.08,0.09,0.16,0.14,0.23c0.05,0.07,0.08,0.16,0.08,0.26
		c-0.02,0.22-0.04,0.44-0.05,0.66c-0.01,0.21-0.04,0.43-0.08,0.66c-0.33,1.3-0.92,2.41-1.77,3.33c-0.29,0.35-0.64,0.55-1.07,0.61
		C33.59,40.06,33.63,39.56,33.77,38.98z M62.16,38.98c0.14-0.58,0.35-1.15,0.63-1.71c0.27-0.56,0.59-1.07,0.93-1.54
		c0.35-0.47,0.7-0.79,1.07-0.98c0.04,0.08,0.09,0.16,0.14,0.23c0.05,0.07,0.08,0.16,0.08,0.26c-0.02,0.22-0.04,0.44-0.05,0.66
		c-0.01,0.21-0.04,0.43-0.08,0.66c-0.33,1.3-0.92,2.41-1.77,3.33c-0.29,0.35-0.64,0.55-1.07,0.61
		C61.98,40.06,62.02,39.56,62.16,38.98z"/>
	<g>
		<path style="fill:#FF0043;" d="M13.61,49.88v6.23h-1.1v-6.23H13.61z"/>
		<path style="fill:#FF0043;" d="M19.26,53.6v2.51h-1.04v-2.46c0-0.43-0.1-0.76-0.3-0.99c-0.2-0.23-0.49-0.34-0.87-0.34
			c-0.41,0-0.73,0.13-0.96,0.4c-0.23,0.26-0.35,0.63-0.35,1.09v2.3h-1.03v-4.55h0.9l0.11,0.6c0.37-0.43,0.89-0.65,1.56-0.65
			c0.58,0,1.05,0.17,1.41,0.5C19.08,52.33,19.26,52.86,19.26,53.6z"/>
		<path style="fill:#FF0043;" d="M19.66,52.4v-0.85h0.85v-1.27h1.04v1.27h1.17v0.85h-1.17v2.38c0,0.18,0.04,0.3,0.11,0.38
			c0.08,0.07,0.21,0.11,0.39,0.11h0.78v0.85h-0.99c-0.46,0-0.8-0.1-1.01-0.3c-0.21-0.2-0.32-0.51-0.32-0.93V52.4H19.66z"/>
		<path style="fill:#FF0043;" d="M24.24,51.79c0.36-0.19,0.77-0.29,1.23-0.29c0.47,0,0.88,0.09,1.24,0.27
			c0.36,0.18,0.64,0.43,0.85,0.76c0.21,0.33,0.31,0.71,0.32,1.15c0,0.12-0.01,0.24-0.03,0.36h-3.68v0.05
			c0.03,0.4,0.16,0.71,0.4,0.94c0.24,0.23,0.56,0.35,0.96,0.35c0.32,0,0.58-0.07,0.8-0.21c0.22-0.14,0.36-0.34,0.43-0.59h1.03
			c-0.09,0.46-0.33,0.84-0.72,1.14s-0.88,0.44-1.46,0.44c-0.51,0-0.95-0.1-1.33-0.29c-0.38-0.19-0.67-0.46-0.88-0.81
			c-0.21-0.35-0.31-0.76-0.31-1.22c0-0.47,0.1-0.88,0.3-1.23C23.6,52.25,23.88,51.98,24.24,51.79z M26.41,52.55
			c-0.24-0.19-0.54-0.28-0.9-0.28c-0.34,0-0.63,0.1-0.87,0.29c-0.24,0.19-0.39,0.45-0.42,0.77h2.62
			C26.79,53,26.65,52.74,26.41,52.55z"/>
		<path style="fill:#FF0043;" d="M31.41,52.45h-0.46c-0.43,0-0.73,0.13-0.92,0.39c-0.19,0.26-0.29,0.59-0.29,0.98v2.29h-1.03v-4.55
			h0.91l0.11,0.68c0.14-0.21,0.32-0.38,0.54-0.5c0.22-0.12,0.52-0.18,0.9-0.18h0.23V52.45z"/>
		<path style="fill:#FF0043;" d="M36.6,53.6v2.51h-1.04v-2.46c0-0.43-0.1-0.76-0.3-0.99c-0.2-0.23-0.49-0.34-0.87-0.34
			c-0.41,0-0.73,0.13-0.96,0.4c-0.23,0.26-0.35,0.63-0.35,1.09v2.3h-1.03v-4.55h0.9l0.11,0.6c0.37-0.43,0.89-0.65,1.56-0.65
			c0.58,0,1.05,0.17,1.41,0.5C36.42,52.33,36.6,52.86,36.6,53.6z"/>
		<path style="fill:#FF0043;" d="M42.21,56.11h-0.54c-0.32,0-0.55-0.06-0.69-0.19c-0.14-0.12-0.21-0.31-0.21-0.54
			c-0.37,0.52-0.91,0.78-1.61,0.78c-0.55,0-0.98-0.12-1.31-0.36c-0.33-0.24-0.5-0.56-0.5-0.98c0-0.47,0.18-0.83,0.53-1.08
			c0.36-0.25,0.87-0.38,1.55-0.38h1.23v-0.28c0-0.25-0.1-0.46-0.29-0.6c-0.19-0.15-0.45-0.22-0.79-0.22c-0.3,0-0.54,0.06-0.74,0.18
			c-0.19,0.12-0.31,0.28-0.35,0.48h-1.01c0.05-0.46,0.27-0.81,0.65-1.06c0.38-0.25,0.88-0.38,1.5-0.38c0.65,0,1.16,0.14,1.51,0.43
			c0.36,0.28,0.53,0.69,0.53,1.23v1.8c0,0.21,0.11,0.32,0.32,0.32h0.2V56.11z M39.39,54.08c-0.32,0-0.56,0.06-0.73,0.17
			c-0.17,0.12-0.26,0.29-0.26,0.51c0,0.2,0.08,0.35,0.24,0.47c0.16,0.12,0.38,0.18,0.66,0.18c0.43,0,0.76-0.11,1-0.32
			s0.36-0.5,0.37-0.85v-0.16H39.39z"/>
		<path style="fill:#FF0043;" d="M45.02,56.16c-0.48,0-0.91-0.1-1.28-0.29c-0.37-0.19-0.65-0.47-0.85-0.82
			c-0.2-0.36-0.3-0.76-0.3-1.23c0-0.46,0.1-0.87,0.3-1.22c0.2-0.35,0.49-0.62,0.86-0.81c0.37-0.19,0.8-0.29,1.29-0.29
			c0.61,0,1.11,0.15,1.5,0.45c0.39,0.3,0.63,0.71,0.72,1.22h-1.06c-0.07-0.26-0.21-0.47-0.42-0.62c-0.21-0.15-0.47-0.23-0.77-0.23
			c-0.41,0-0.74,0.14-1,0.42c-0.25,0.28-0.38,0.64-0.38,1.09c0,0.45,0.13,0.82,0.38,1.1c0.25,0.28,0.58,0.42,1,0.42
			c0.32,0,0.58-0.08,0.79-0.24c0.21-0.16,0.35-0.37,0.41-0.64h1.05c-0.1,0.53-0.34,0.94-0.73,1.24
			C46.14,56.01,45.63,56.16,45.02,56.16z"/>
		<path style="fill:#FF0043;" d="M49.24,50.31c0,0.17-0.06,0.3-0.18,0.41c-0.12,0.11-0.27,0.16-0.45,0.16
			c-0.18,0-0.33-0.05-0.45-0.16c-0.12-0.11-0.18-0.25-0.18-0.41s0.06-0.3,0.18-0.41c0.12-0.11,0.27-0.16,0.45-0.16
			c0.18,0,0.33,0.05,0.45,0.16C49.18,50,49.24,50.14,49.24,50.31z M49.12,51.55v4.55h-1.03v-4.55H49.12z"/>
		<path style="fill:#FF0043;" d="M50.26,55.05c-0.21-0.35-0.31-0.76-0.31-1.22c0-0.46,0.1-0.86,0.31-1.21
			c0.21-0.35,0.5-0.63,0.88-0.82c0.38-0.2,0.81-0.29,1.3-0.29s0.92,0.1,1.3,0.29c0.38,0.2,0.67,0.47,0.88,0.82
			c0.21,0.35,0.31,0.76,0.31,1.21c0,0.46-0.1,0.87-0.31,1.22c-0.21,0.35-0.5,0.63-0.88,0.82c-0.38,0.19-0.81,0.29-1.3,0.29
			s-0.92-0.1-1.3-0.29C50.76,55.68,50.47,55.41,50.26,55.05z M53.88,53.83c0-0.44-0.13-0.81-0.4-1.09
			c-0.26-0.28-0.61-0.42-1.04-0.42c-0.43,0-0.78,0.14-1.04,0.42c-0.26,0.28-0.39,0.64-0.39,1.09c0,0.44,0.13,0.81,0.39,1.09
			c0.26,0.28,0.61,0.42,1.04,0.42c0.43,0,0.78-0.14,1.04-0.42C53.74,54.64,53.88,54.27,53.88,53.83z"/>
		<path style="fill:#FF0043;" d="M60.29,53.6v2.51h-1.04v-2.46c0-0.43-0.1-0.76-0.3-0.99c-0.2-0.23-0.49-0.34-0.87-0.34
			c-0.41,0-0.73,0.13-0.96,0.4c-0.23,0.26-0.35,0.63-0.35,1.09v2.3h-1.03v-4.55h0.9l0.11,0.6c0.37-0.43,0.89-0.65,1.56-0.65
			c0.58,0,1.05,0.17,1.41,0.5C60.11,52.33,60.29,52.86,60.29,53.6z"/>
		<path style="fill:#FF0043;" d="M65.89,56.11h-0.54c-0.32,0-0.55-0.06-0.69-0.19c-0.14-0.12-0.21-0.31-0.21-0.54
			c-0.37,0.52-0.91,0.78-1.61,0.78c-0.55,0-0.98-0.12-1.31-0.36c-0.33-0.24-0.5-0.56-0.5-0.98c0-0.47,0.18-0.83,0.53-1.08
			c0.36-0.25,0.87-0.38,1.55-0.38h1.23v-0.28c0-0.25-0.1-0.46-0.29-0.6c-0.19-0.15-0.45-0.22-0.79-0.22c-0.3,0-0.54,0.06-0.74,0.18
			c-0.19,0.12-0.31,0.28-0.35,0.48h-1.01c0.05-0.46,0.27-0.81,0.65-1.06c0.38-0.25,0.88-0.38,1.5-0.38c0.65,0,1.16,0.14,1.51,0.43
			c0.36,0.28,0.53,0.69,0.53,1.23v1.8c0,0.21,0.11,0.32,0.32,0.32h0.2V56.11z M63.07,54.08c-0.32,0-0.56,0.06-0.73,0.17
			c-0.17,0.12-0.26,0.29-0.26,0.51c0,0.2,0.08,0.35,0.24,0.47c0.16,0.12,0.38,0.18,0.66,0.18c0.43,0,0.76-0.11,1-0.32
			s0.36-0.5,0.37-0.85v-0.16H63.07z"/>
		<path style="fill:#FF0043;" d="M67.48,49.88v6.23h-1.03v-6.23H67.48z"/>
	</g>
</g>
</svg>
