<?xml version="1.0" encoding="utf-8"?>
<!-- Generator: Adobe Illustrator 24.0.0, SVG Export Plug-In . SVG Version: 6.00 Build 0)  -->
<svg version="1.1" id="Capa_1" xmlns="http://www.w3.org/2000/svg" xmlns:xlink="http://www.w3.org/1999/xlink" x="0px" y="0px"
	 viewBox="0 0 254.1 205.3" style="enable-background:new 0 0 254.1 205.3;" xml:space="preserve">
<ellipse style="fill:#FF0043;" cx="127.1" cy="102.6" rx="123.9" ry="100"/>
<g>
	<path style="fill:#FFFFFF;" d="M227.3,96.9c-0.7,0.3-1.2,0.5-1.4,0.6c-0.2,0.2-0.6,0.6-1.1,1.3c-1.9,2.7-3.9,5.4-5.9,7.9
		c-2,2.5-4.2,4.9-6.7,7.1c-0.8,0.7-1.6,1.4-2.4,2c-0.8,0.6-1.7,1.1-2.6,1.6c-3.1,1.5-5.5,0.8-7.3-2.1c-0.5-0.6-0.8-1.2-1.1-2
		c-0.3-0.7-0.6-1.5-1-2.3c2.1-0.3,3.7-0.6,4.9-0.9c1.1-0.3,2.2-0.9,3.3-1.8c3.3-2.6,5.6-5.6,7.1-9c1.5-3.4,2.1-7.2,1.7-11.4
		c-0.1-1.6-0.8-3.1-2-4.5c-1.2-1.4-2.5-2.1-4-2.3c-1.7-0.3-3.4-0.3-5-0.1c-1.7,0.2-3.3,0.7-4.7,1.6c-1.5,0.9-2.9,2-4.1,3.1
		c-1.2,1.2-2.3,2.5-3.2,3.9c-2.3,3.7-3.9,7.6-4.7,11.5c-0.3,1.6-0.6,3.1-0.7,4.7c-0.7,1.2-1.4,2.3-2.1,3.5c-1.2,2.1-2.5,4.2-3.9,6.3
		c-1.2,1.9-2.4,1.9-3.8,0c-0.9-1.1-1.5-2.5-2.1-4.1c-0.5-1.6-0.9-3.3-1.2-5.2c-0.3-1.9-0.5-3.8-0.6-5.8c-0.2-2-0.3-3.9-0.3-5.9
		s-0.2-3.8-0.3-5.5c1.1-0.2,2.1-0.4,3-0.5s1.8-0.3,2.7-0.4c1-0.2,1.9-0.5,2.8-0.9c0.9-0.4,1.7-0.9,2.4-1.7c0.8-0.7,1.1-1.4,1-2.1
		c-0.1-0.7-0.7-1.2-1.8-1.5c-1-0.4-2.1-0.6-3.1-0.5c-1,0-2.1,0.1-3.2,0.2c-0.7,0.1-1.3,0.2-2,0.2c-0.7,0-1.3,0.1-2.1,0.1
		c-0.1-0.3-0.1-0.6-0.1-0.9c0-0.3,0-0.5,0-0.7c-0.1-3.1-0.1-6.2-0.1-9.3c0-3.1-0.1-6.2-0.2-9.3c0-0.3,0-0.7,0-1.1
		c0-0.4-0.1-0.8-0.2-1.1c-0.3-0.9-0.7-1.3-1.3-1.5c-0.6-0.1-1.2,0.2-1.7,0.9c-0.5,0.5-0.9,1.1-1.3,1.7c-0.4,0.6-0.7,1.3-0.8,2
		c-0.5,1.9-1,3.8-1.4,5.7s-0.8,3.8-1.2,5.7c-0.3,1.4-0.6,2.9-0.7,4.4c-0.2,1.5-0.4,3-0.6,4.4c-0.9,0.1-1.8,0.1-2.6,0.1
		s-1.7,0.1-2.6,0.2c-1,0.1-1.6,0.5-2,1.2c-0.3,0.7-0.2,1.4,0.4,2.2c0.3,0.5,0.7,0.8,1.2,1.1c0.5,0.3,1,0.5,1.5,0.7
		c0.5,0.3,1.1,0.4,1.7,0.5c0.6,0.1,1.3,0.2,1.9,0.4v1.7c-0.1,1.6-0.2,3.3-0.2,5.1c0,1,0,2,0,3c-0.4,0.4-1.3,1.4-1.4,1.5
		c-0.1,0.1-0.2,0.2-0.2,0.3c-0.2,0.3-0.4,0.6-0.5,0.9c-0.1,0.3-0.3,0.6-0.5,0.9c-1.3,2.1-2.6,4.2-3.8,6.3c-1.2,2.1-2.6,4.2-3.9,6.3
		c-1.2,1.9-2.4,1.9-3.8,0c-0.9-1.1-1.5-2.5-2.1-4.1c-0.5-1.6-0.9-3.3-1.2-5.2c-0.3-1.9-0.5-3.8-0.6-5.8c-0.2-2-0.3-3.9-0.3-5.9
		c-0.1-2-0.2-3.8-0.3-5.5c1.1-0.2,2.1-0.4,3-0.5s1.8-0.3,2.7-0.4c1-0.2,1.9-0.5,2.8-0.9c0.9-0.4,1.7-0.9,2.4-1.7
		c0.8-0.7,1.1-1.4,1-2.1c-0.1-0.7-0.7-1.2-1.8-1.5c-1-0.4-2.1-0.6-3.1-0.5c-1,0-2.1,0.1-3.2,0.2c-0.7,0.1-1.3,0.2-2,0.2
		s-1.3,0.1-2.1,0.1c-0.1-0.3-0.1-0.6-0.1-0.9c0-0.3,0-0.5,0-0.7c-0.1-3.1-0.1-6.2-0.1-9.3c0-3.1-0.1-6.2-0.2-9.3c0-0.3,0-0.7,0-1.1
		c0-0.4-0.1-0.8-0.2-1.1c-0.3-0.9-0.7-1.3-1.3-1.5c-0.6-0.1-1.2,0.2-1.7,0.9c-0.5,0.5-0.9,1.1-1.3,1.7c-0.4,0.6-0.7,1.3-0.8,2
		c-0.5,1.9-1,3.8-1.4,5.7s-0.8,3.8-1.2,5.7c-0.3,1.4-0.6,2.9-0.7,4.4c-0.2,1.5-0.4,3-0.6,4.4c-0.9,0.1-1.8,0.1-2.6,0.1
		c-0.9,0-1.7,0.1-2.6,0.2c-1,0.1-1.6,0.5-2,1.2c-0.3,0.7-0.2,1.4,0.4,2.2c0.3,0.5,0.7,0.8,1.2,1.1c0.5,0.3,1,0.5,1.5,0.7
		c0.5,0.3,1.1,0.4,1.7,0.5c0.6,0.1,1.3,0.2,1.9,0.4v1.7c-0.1,1.6-0.2,3.3-0.2,5.1c0,1.8,0,3.6,0.1,5.4c-1.2,1.6-2.4,3.2-3.6,4.7
		c-2,2.5-4.2,4.9-6.7,7.1c-0.8,0.7-1.6,1.4-2.4,2s-1.7,1.1-2.6,1.6c-3.1,1.5-5.5,0.8-7.3-2.1c-0.5-0.6-0.8-1.2-1.1-2
		c-0.3-0.7-0.6-1.5-1-2.3c2.1-0.3,3.7-0.6,4.9-0.9c1.1-0.3,2.2-0.9,3.3-1.8c3.3-2.6,5.6-5.6,7.1-9c1.5-3.4,2.1-7.2,1.7-11.4
		c-0.1-1.6-0.8-3.1-2-4.5c-1.2-1.4-2.5-2.1-4-2.3c-1.7-0.3-3.4-0.3-5-0.1c-1.7,0.2-3.3,0.7-4.7,1.6c-1.5,0.9-2.9,2-4.1,3.1
		s-2.3,2.5-3.2,3.9c-2.3,3.7-3.9,7.6-4.7,11.5c-0.3,1.1-0.4,2.3-0.6,3.4c-0.9,1.8-1.9,3.6-3,5.5c-0.7,1.1-1.5,2.2-2.3,3.2
		c-0.8,1-1.6,2-2.4,3.1c-0.6,0.7-1.3,1.2-2.3,1.6c-1.6,0.8-2.8,0.3-3.5-1.4c-0.5-1.4-0.9-2.9-1.2-4.4c-0.5-2.7-0.8-5.3-0.8-8
		s0-5.3,0-8.1c0-0.5,0.1-1,0.4-1.3c0.3-0.4,0.6-0.7,0.9-1c1.1-0.9,2.2-1.8,3.2-2.6c1-0.9,2-1.8,2.9-2.7c2.6-2.7,4.6-5.6,5.9-8.8
		c1.3-3.2,2.5-6.6,3.4-10.1c0.5-2.1,0.8-4.3,0.8-6.4c0-2.1-0.3-4.2-0.8-6.3c-0.3-1.3-0.9-2.5-1.6-3.5s-1.8-1.7-3.1-2.1
		c-2.8-0.7-5.4-0.4-7.9,0.9c-4,2.3-7,5.5-8.7,9.7c-1.8,4.1-3.1,8.3-4.1,12.6c-1,4.3-1.6,8.6-2,13.1c-0.3,4-0.4,8.1-0.1,12.1
		c0.1,1.9,0.3,3.8,0.5,5.7c-0.7,1.5-1.3,3-2,4.5c-1.4,2.9-3.1,5.6-5.2,8.1c-0.7,0.7-1.3,0.9-1.9,0.7c-0.6-0.2-1-0.7-1.4-1.5
		c-0.4-1-0.6-2.2-0.6-3.4c0.1-3.3,0.4-6.6,1-9.8c0.6-3.2,1.2-6.4,1.8-9.6c0.6-2.7,1-5.4,1.2-8.3c0.1-1.7-0.3-2.9-1.3-3.5
		s-2.3-0.6-3.8,0.2c-0.5,0.3-1,0.7-1.5,1c-0.5,0.3-1,0.6-1.4,0.9c-0.7-0.4-1.4-0.8-2-1.1c-0.6-0.4-1.3-0.7-1.9-0.9
		c-2.3-0.9-4.4-1-6.5-0.5c-2,0.5-3.9,1.5-5.7,3c-8.9,7.6-12.8,17.3-11.8,29.1c0.1,1.8,0.5,3.5,1.2,5.1c0.7,1.7,1.7,3.1,3,4.4
		c1.6,1.5,3.3,2.3,5.1,2.4s3.6-0.5,5.3-1.8c0.5-0.5,1-1,1.6-1.5c0.5-0.5,1-1,1.5-1.6c0.6-0.7,1.2-1.5,1.7-2.3
		c0.6-0.8,1.1-1.6,1.7-2.5c0.5,0.8,0.9,1.6,1.2,2.3c0.3,0.7,0.7,1.4,1.3,2.1c2.1,3,4.6,4.5,7.4,4.6c2.8,0.1,5.4-1.3,7.7-4.2
		c1.7-2.1,3.2-4.3,4.4-6.7c0.4-0.8,0.8-1.5,1.1-2.3c0.3,1.5,0.6,2.9,1,4.3c0.5,1.6,1.1,3.1,2.1,4.6c0.8,1.4,1.8,2.6,3.1,3.4
		c1.3,0.9,2.7,1.4,4.1,1.6c1.4,0.2,2.8,0,4.2-0.4c1.4-0.5,2.7-1.4,3.8-2.6c2.6-3,4.9-6.3,6.8-9.7c0,0.1,0,0.2,0,0.3
		c0.3,1.5,0.7,3,1.4,4.4c0.7,1.4,1.5,2.7,2.6,3.9c1.1,1.1,2.4,2.1,3.9,2.8c1.5,0.7,3.3,1.2,5.4,1.2c2.3,0.1,4.4-0.2,6.4-1
		s3.7-2,5.4-3.7c1.5-1.5,3-3,4.4-4.6c1.4-1.6,2.8-3.2,4-4.9c1.1-1.5,2.1-3,3-4.6c0,0.2,0,0.4,0.1,0.6c0.2,1.8,0.5,3.5,0.9,5.1
		c0.5,1.7,1,3.3,1.6,4.9c0.6,1.5,1.4,3,2.5,4.4c1.8,2.5,4,3.8,6.4,4.1c2.4,0.2,4.8-0.7,7.1-2.8c0.9-0.7,1.5-1.5,2-2.3
		c1.2-2.1,2.3-4.3,3.4-6.4c1.1-2.1,2.5-4.1,3.6-6.2c0.4-0.8,1-1.9,1.3-2.8c0.1-0.2,0.2-0.3,0.4-0.5c0.1,0.9,0.2,1.8,0.3,2.7
		c0.2,1.8,0.5,3.5,0.9,5.1c0.5,1.7,1,3.3,1.6,4.9c0.6,1.5,1.4,3,2.5,4.4c1.8,2.5,4,3.8,6.4,4.1c2.4,0.2,4.8-0.7,7.1-2.8
		c0.9-0.7,1.5-1.5,2-2.3c1.2-2.1,2.3-4.3,3.4-6.4c0.3-0.6,0.6-1.3,1-1.9c0,0.3,0.1,0.5,0.1,0.7c0.3,1.5,0.7,3,1.4,4.4
		c0.7,1.4,1.5,2.7,2.6,3.9c1.1,1.1,2.4,2.1,3.9,2.8c1.5,0.7,3.3,1.2,5.4,1.2c2.3,0.1,4.4-0.2,6.4-1s3.7-2,5.4-3.7
		c1.5-1.5,3-3,4.4-4.6c1.4-1.6,2.8-3.2,4-4.9c1.3-1.8,2.5-3.7,3.6-5.7c1.1-2,2.2-3.9,3.3-5.9c0.3-0.5,0.6-1.1,0.7-1.6
		C227.9,98.1,227.8,97.5,227.3,96.9z M80.6,85c0-0.8,0.1-1.5,0.2-2.3c0.6-3.3,1.2-6.7,1.9-10s1.6-6.6,2.8-9.8c0.4-1,0.8-1.9,1.2-2.8
		c0.4-0.9,0.9-1.8,1.3-2.7c0.3-0.6,0.7-1.2,1.2-1.7c0.5-0.6,0.9-1.2,1.5-1.8c0.7,0.7,1.2,1.4,1.4,2.1c0.2,0.7,0.3,1.5,0.4,2.3
		c0.1,2.3,0,4.5-0.4,6.7c-0.4,2.1-0.9,4.3-1.7,6.4c-0.6,1.7-1.2,3.4-1.9,5c-0.7,1.6-1.4,3.3-2.1,4.9c-0.6,1.3-1.4,2.5-2.4,3.5
		c-1,1-2.2,2.1-3.5,3.2C80.6,86.7,80.6,85.8,80.6,85z M50,92.4c-0.7,1.7-1.1,3.5-1.5,5.3c-0.3,1.3-0.5,2.6-0.6,4
		c-0.2,1.4-0.3,2.7-0.5,4c-0.1,0.4-0.1,0.8-0.1,1.2c0,0.4-0.1,0.7-0.3,1.1c-0.9,1.7-1.7,3.4-2.5,5c-0.9,1.6-1.7,3.3-2.6,4.9
		c-0.3,0.5-0.7,1-1.3,1.6c-0.5,0.5-1.2,0.7-2,0.5c-0.7-0.2-1.2-0.6-1.3-1.3c-0.2-0.7-0.3-1.3-0.4-1.9c-0.4-1.2-0.6-2.3-0.5-3.5
		c0-1.2,0.1-2.4,0.2-3.6c0.6-3.5,1.6-6.9,2.9-10.1s3.2-6.2,5.5-9c0.5-0.5,1-1,1.6-1.5c0.5-0.5,1.1-0.9,1.7-1.4
		c0.6-0.4,1.2-0.7,2-0.8c0.7-0.2,1.6,0,2.6,0.4C51.5,89,50.6,90.7,50,92.4z M107.1,99.3c0.5-1.9,1.1-3.7,2-5.5
		c0.9-1.8,1.9-3.4,3-4.9c1.1-1.5,2.3-2.5,3.4-3.1c0.1,0.3,0.3,0.5,0.4,0.7c0.2,0.2,0.2,0.5,0.2,0.8c-0.1,0.7-0.1,1.4-0.1,2.1
		c0,0.7-0.1,1.4-0.2,2.1c-1,4.2-2.9,7.7-5.7,10.7c-0.9,1.1-2.1,1.8-3.4,2C106.5,102.8,106.7,101.2,107.1,99.3z M198,99.3
		c0.5-1.9,1.1-3.7,2-5.5c0.9-1.8,1.9-3.4,3-4.9c1.1-1.5,2.3-2.5,3.4-3.1c0.1,0.3,0.3,0.5,0.4,0.7c0.2,0.2,0.2,0.5,0.2,0.8
		c-0.1,0.7-0.1,1.4-0.1,2.1s-0.1,1.4-0.2,2.1c-1,4.2-2.9,7.7-5.7,10.7c-0.9,1.1-2.1,1.8-3.4,2C197.4,102.8,197.6,101.2,198,99.3z"/>
	<g>
		<path style="fill:#FFFFFF;" d="M42.6,134.2v19.9h-3.5v-19.9H42.6z"/>
		<path style="fill:#FFFFFF;" d="M60.7,146.1v8h-3.3v-7.9c0-1.4-0.3-2.4-0.9-3.2c-0.6-0.7-1.6-1.1-2.8-1.1c-1.3,0-2.3,0.4-3.1,1.3
			c-0.7,0.9-1.1,2-1.1,3.5v7.4h-3.3v-14.6H49l0.4,1.9c1.2-1.4,2.9-2.1,5-2.1c1.9,0,3.4,0.5,4.5,1.6
			C60.1,142.1,60.7,143.8,60.7,146.1z"/>
		<path style="fill:#FFFFFF;" d="M61.9,142.3v-2.7h2.7v-4.1H68v4.1h3.7v2.7H68v7.6c0,0.6,0.1,1,0.4,1.2c0.2,0.2,0.7,0.4,1.3,0.4h2.5
			v2.7h-3.2c-1.5,0-2.6-0.3-3.3-1s-1-1.6-1-3v-7.9H61.9z"/>
		<path style="fill:#FFFFFF;" d="M76.6,140.3c1.1-0.6,2.5-0.9,4-0.9c1.5,0,2.8,0.3,4,0.9c1.1,0.6,2.1,1.4,2.7,2.4c0.7,1,1,2.3,1,3.7
			c0,0.4,0,0.8-0.1,1.2H76.4v0.2c0.1,1.3,0.5,2.3,1.3,3c0.8,0.7,1.8,1.1,3.1,1.1c1,0,1.9-0.2,2.6-0.7c0.7-0.4,1.1-1.1,1.4-1.9H88
			c-0.3,1.5-1.1,2.7-2.3,3.6s-2.8,1.4-4.7,1.4c-1.6,0-3-0.3-4.3-0.9c-1.2-0.6-2.1-1.5-2.8-2.6c-0.7-1.1-1-2.4-1-3.9
			c0-1.5,0.3-2.8,1-3.9C74.6,141.8,75.5,140.9,76.6,140.3z M83.6,142.8c-0.8-0.6-1.7-0.9-2.9-0.9c-1.1,0-2,0.3-2.8,0.9
			c-0.8,0.6-1.2,1.4-1.4,2.5h8.4C84.8,144.2,84.3,143.4,83.6,142.8z"/>
		<path style="fill:#FFFFFF;" d="M99.6,142.4h-1.5c-1.4,0-2.3,0.4-3,1.2c-0.6,0.8-0.9,1.9-0.9,3.1v7.3h-3.3v-14.6h2.9l0.4,2.2
			c0.4-0.7,1-1.2,1.7-1.6c0.7-0.4,1.7-0.6,2.9-0.6h0.7L99.6,142.4L99.6,142.4z"/>
		<path style="fill:#FFFFFF;" d="M116.2,146.1v8h-3.3v-7.9c0-1.4-0.3-2.4-0.9-3.2c-0.6-0.7-1.6-1.1-2.8-1.1c-1.3,0-2.3,0.4-3.1,1.3
			c-0.7,0.9-1.1,2-1.1,3.5v7.4h-3.3v-14.6h2.9l0.4,1.9c1.2-1.4,2.9-2.1,5-2.1c1.9,0,3.4,0.5,4.5,1.6
			C115.6,142.1,116.2,143.8,116.2,146.1z"/>
		<path style="fill:#FFFFFF;" d="M134.1,154.1h-1.7c-1,0-1.7-0.2-2.2-0.6c-0.4-0.4-0.7-1-0.7-1.7c-1.2,1.7-2.9,2.5-5.1,2.5
			c-1.7,0-3.1-0.4-4.2-1.1c-1.1-0.8-1.6-1.8-1.6-3.1c0-1.5,0.6-2.7,1.7-3.5c1.1-0.8,2.8-1.2,5-1.2h3.9v-0.9c0-0.8-0.3-1.5-0.9-1.9
			c-0.6-0.5-1.4-0.7-2.5-0.7c-1,0-1.7,0.2-2.4,0.6c-0.6,0.4-1,0.9-1.1,1.6H119c0.2-1.5,0.9-2.6,2.1-3.4c1.2-0.8,2.8-1.2,4.8-1.2
			c2.1,0,3.7,0.5,4.9,1.4c1.1,0.9,1.7,2.2,1.7,3.9v5.8c0,0.7,0.3,1,1,1h0.6L134.1,154.1L134.1,154.1z M125.1,147.7
			c-1,0-1.8,0.2-2.3,0.6c-0.5,0.4-0.8,0.9-0.8,1.6c0,0.6,0.3,1.1,0.8,1.5s1.2,0.6,2.1,0.6c1.4,0,2.4-0.3,3.2-1
			c0.8-0.7,1.1-1.6,1.2-2.7v-0.5H125.1z"/>
		<path style="fill:#FFFFFF;" d="M143.1,154.3c-1.6,0-2.9-0.3-4.1-0.9c-1.2-0.6-2.1-1.5-2.7-2.6c-0.6-1.1-1-2.4-1-3.9s0.3-2.8,1-3.9
			c0.7-1.1,1.6-2,2.8-2.6c1.2-0.6,2.6-0.9,4.1-0.9c2,0,3.6,0.5,4.8,1.4c1.2,1,2,2.3,2.3,3.9h-3.4c-0.2-0.8-0.7-1.5-1.3-2
			c-0.7-0.5-1.5-0.7-2.5-0.7c-1.3,0-2.4,0.4-3.2,1.3s-1.2,2-1.2,3.5c0,1.4,0.4,2.6,1.2,3.5c0.8,0.9,1.9,1.4,3.2,1.4
			c1,0,1.9-0.3,2.5-0.8c0.7-0.5,1.1-1.2,1.3-2h3.4c-0.3,1.7-1.1,3-2.3,4S145.1,154.3,143.1,154.3z"/>
		<path style="fill:#FFFFFF;" d="M156.6,135.6c0,0.5-0.2,1-0.6,1.3c-0.4,0.4-0.9,0.5-1.4,0.5s-1-0.2-1.4-0.5
			c-0.4-0.4-0.6-0.8-0.6-1.3c0-0.5,0.2-1,0.6-1.3s0.9-0.5,1.4-0.5s1,0.2,1.4,0.5C156.5,134.6,156.6,135,156.6,135.6z M156.3,139.6
			v14.6H153v-14.6C153,139.6,156.3,139.6,156.3,139.6z"/>
		<path style="fill:#FFFFFF;" d="M159.9,150.8c-0.7-1.1-1-2.4-1-3.9c0-1.5,0.3-2.8,1-3.9c0.7-1.1,1.6-2,2.8-2.6s2.6-0.9,4.2-0.9
			c1.6,0,3,0.3,4.2,0.9s2.1,1.5,2.8,2.6c0.7,1.1,1,2.4,1,3.9c0,1.5-0.3,2.8-1,3.9c-0.7,1.1-1.6,2-2.8,2.6c-1.2,0.6-2.6,0.9-4.2,0.9
			c-1.6,0-3-0.3-4.2-0.9C161.5,152.8,160.6,151.9,159.9,150.8z M171.5,146.9c0-1.4-0.4-2.6-1.3-3.5c-0.9-0.9-2-1.4-3.3-1.4
			s-2.5,0.4-3.3,1.4c-0.8,0.9-1.3,2.1-1.3,3.5c0,1.4,0.4,2.6,1.3,3.5c0.8,0.9,1.9,1.4,3.3,1.4s2.5-0.4,3.3-1.4
			C171.1,149.4,171.5,148.3,171.5,146.9z"/>
		<path style="fill:#FFFFFF;" d="M192,146.1v8h-3.3v-7.9c0-1.4-0.3-2.4-0.9-3.2c-0.6-0.7-1.6-1.1-2.8-1.1c-1.3,0-2.3,0.4-3.1,1.3
			c-0.7,0.9-1.1,2-1.1,3.5v7.4h-3.3v-14.6h2.9l0.4,1.9c1.2-1.4,2.9-2.1,5-2.1c1.9,0,3.4,0.5,4.5,1.6
			C191.4,142.1,192,143.8,192,146.1z"/>
		<path style="fill:#FFFFFF;" d="M210,154.1h-1.7c-1,0-1.7-0.2-2.2-0.6c-0.4-0.4-0.7-1-0.7-1.7c-1.2,1.7-2.9,2.5-5.2,2.5
			c-1.7,0-3.1-0.4-4.2-1.1s-1.6-1.8-1.6-3.1c0-1.5,0.6-2.7,1.7-3.5c1.1-0.8,2.8-1.2,5-1.2h3.9v-0.9c0-0.8-0.3-1.5-0.9-1.9
			c-0.6-0.5-1.4-0.7-2.5-0.7c-1,0-1.7,0.2-2.4,0.6c-0.6,0.4-1,0.9-1.1,1.6h-3.2c0.2-1.5,0.9-2.6,2.1-3.4c1.2-0.8,2.8-1.2,4.8-1.2
			c2.1,0,3.7,0.5,4.9,1.4s1.7,2.2,1.7,3.9v5.8c0,0.7,0.3,1,1,1h0.6L210,154.1L210,154.1z M201,147.7c-1,0-1.8,0.2-2.3,0.6
			c-0.6,0.4-0.8,0.9-0.8,1.6c0,0.6,0.3,1.1,0.8,1.5c0.5,0.4,1.2,0.6,2.1,0.6c1.4,0,2.4-0.3,3.2-1c0.8-0.7,1.1-1.6,1.2-2.7v-0.5H201z
			"/>
		<path style="fill:#FFFFFF;" d="M215.1,134.2v19.9h-3.3v-19.9H215.1z"/>
	</g>
</g>
</svg>
